<svg xmlns="http://www.w3.org/2000/svg" xmlns:xlink="http://www.w3.org/1999/xlink" width="260" zoomAndPan="magnify" viewBox="0 0 194.87999 195.000001" height="260" preserveAspectRatio="xMidYMid meet" version="1.0"><defs><filter x="0%" y="0%" width="100%" height="100%" id="051f18171e"><feColorMatrix values="0 0 0 0 1 0 0 0 0 1 0 0 0 0 1 0 0 0 1 0" color-interpolation-filters="sRGB"/></filter><clipPath id="6b88352637"><path d="M 37.746094 37.308594 L 157.132812 37.308594 L 157.132812 156.695312 L 37.746094 156.695312 Z M 37.746094 37.308594 " clip-rule="nonzero"/></clipPath><clipPath id="54501dc97e"><path d="M 97.441406 37.308594 C 64.472656 37.308594 37.746094 64.035156 37.746094 97.003906 C 37.746094 129.96875 64.472656 156.695312 97.441406 156.695312 C 130.40625 156.695312 157.132812 129.96875 157.132812 97.003906 C 157.132812 64.035156 130.40625 37.308594 97.441406 37.308594 " clip-rule="nonzero"/></clipPath><mask id="62d6cd9368"><g filter="url(#051f18171e)"><rect x="-19.487999" width="233.855988" fill="#000000" y="-19.5" height="234.000001" fill-opacity="0.5176"/></g></mask><clipPath id="f08365bf1f"><path d="M 0.632812 0.691406 L 34.957031 0.691406 L 34.957031 35.015625 L 0.632812 35.015625 Z M 0.632812 0.691406 " clip-rule="nonzero"/></clipPath><clipPath id="9f7f95d851"><path d="M 48.644531 14.40625 L 85.207031 14.40625 L 85.207031 21.125 L 48.644531 21.125 Z M 48.644531 14.40625 " clip-rule="nonzero"/></clipPath><clipPath id="02dc47228c"><path d="M 48.644531 55 L 82.96875 55 L 82.96875 63 L 48.644531 63 Z M 48.644531 55 " clip-rule="nonzero"/></clipPath><clipPath id="5faa67834f"><path d="M 61 42.984375 L 71 42.984375 L 71 52 L 61 52 Z M 61 42.984375 " clip-rule="nonzero"/></clipPath><clipPath id="272bef755a"><path d="M 61 66 L 71 66 L 71 75.070312 L 61 75.070312 Z M 61 66 " clip-rule="nonzero"/></clipPath><clipPath id="de56de670f"><path d="M 1 42.472656 L 34.957031 42.472656 L 34.957031 75.304688 L 1 75.304688 Z M 1 42.472656 " clip-rule="nonzero"/></clipPath><clipPath id="3ad6979463"><rect x="0" width="86" y="0" height="77"/></clipPath><clipPath id="7b87449c81"><path d="M 55.652344 60.355469 L 89.976562 60.355469 L 89.976562 94.679688 L 55.652344 94.679688 Z M 55.652344 60.355469 " clip-rule="nonzero"/></clipPath><clipPath id="473970eaff"><path d="M 103.664062 74.070312 L 140.226562 74.070312 L 140.226562 80.789062 L 103.664062 80.789062 Z M 103.664062 74.070312 " clip-rule="nonzero"/></clipPath><clipPath id="ac5b5a1429"><path d="M 103.664062 115 L 137.988281 115 L 137.988281 122 L 103.664062 122 Z M 103.664062 115 " clip-rule="nonzero"/></clipPath><clipPath id="a15920a2fd"><path d="M 116 102.648438 L 126 102.648438 L 126 112 L 116 112 Z M 116 102.648438 " clip-rule="nonzero"/></clipPath><clipPath id="6ce83a5b3d"><path d="M 116 126 L 126 126 L 126 134.734375 L 116 134.734375 Z M 116 126 " clip-rule="nonzero"/></clipPath><clipPath id="48e662c634"><path d="M 56 102.136719 L 89.976562 102.136719 L 89.976562 134.96875 L 56 134.96875 Z M 56 102.136719 " clip-rule="nonzero"/></clipPath></defs><g clip-path="url(#6b88352637)"><g clip-path="url(#54501dc97e)"><path fill="#f5bb3d" d="M 37.746094 37.308594 L 157.132812 37.308594 L 157.132812 156.695312 L 37.746094 156.695312 Z M 37.746094 37.308594 " fill-opacity="1" fill-rule="nonzero"/></g></g><g mask="url(#62d6cd9368)"><g transform="matrix(1, 0, 0, 1, 54, 58)"><g clip-path="url(#3ad6979463)"><g clip-path="url(#f08365bf1f)"><path fill="#000000" d="M 31.742188 14.632812 L 21.015625 14.632812 L 21.015625 3.90625 C 21.015625 2.128906 19.574219 0.691406 17.796875 0.691406 C 16.019531 0.691406 14.578125 2.128906 14.578125 3.90625 L 14.578125 14.632812 L 3.851562 14.632812 C 2.074219 14.632812 0.632812 16.074219 0.632812 17.851562 C 0.632812 19.628906 2.074219 21.070312 3.851562 21.070312 L 14.578125 21.070312 L 14.578125 31.796875 C 14.578125 33.574219 16.019531 35.015625 17.796875 35.015625 C 19.574219 35.015625 21.015625 33.574219 21.015625 31.796875 L 21.015625 21.070312 L 31.742188 21.070312 C 33.519531 21.070312 34.957031 19.628906 34.957031 17.851562 C 34.957031 16.074219 33.519531 14.632812 31.742188 14.632812 Z M 31.742188 14.632812 " fill-opacity="1" fill-rule="nonzero"/></g><g clip-path="url(#9f7f95d851)"><path fill="#000000" d="M 85.203125 17.765625 C 85.203125 19.621094 83.667969 21.125 81.777344 21.125 L 52.078125 21.125 C 50.183594 21.125 48.652344 19.621094 48.652344 17.765625 C 48.652344 15.910156 50.183594 14.40625 52.078125 14.40625 L 81.777344 14.40625 C 83.667969 14.40625 85.203125 15.910156 85.203125 17.765625 Z M 85.203125 17.765625 " fill-opacity="1" fill-rule="nonzero"/></g><g clip-path="url(#02dc47228c)"><path fill="#000000" d="M 82.96875 59.027344 C 82.96875 60.800781 81.527344 62.238281 79.75 62.238281 L 51.863281 62.238281 C 50.085938 62.238281 48.648438 60.800781 48.648438 59.027344 C 48.648438 57.257812 50.085938 55.820312 51.863281 55.820312 L 79.75 55.820312 C 81.527344 55.820312 82.96875 57.257812 82.96875 59.027344 Z M 82.96875 59.027344 " fill-opacity="1" fill-rule="nonzero"/></g><g clip-path="url(#5faa67834f)"><path fill="#000000" d="M 70.097656 47.265625 C 70.097656 47.546875 70.070312 47.824219 70.015625 48.097656 C 69.960938 48.375 69.878906 48.640625 69.769531 48.902344 C 69.664062 49.160156 69.53125 49.40625 69.375 49.640625 C 69.21875 49.875 69.039062 50.089844 68.839844 50.289062 C 68.640625 50.488281 68.425781 50.664062 68.191406 50.820312 C 67.957031 50.976562 67.710938 51.109375 67.449219 51.214844 C 67.1875 51.324219 66.921875 51.40625 66.644531 51.460938 C 66.367188 51.515625 66.089844 51.542969 65.808594 51.542969 C 65.527344 51.542969 65.246094 51.515625 64.96875 51.460938 C 64.695312 51.40625 64.425781 51.324219 64.164062 51.214844 C 63.90625 51.109375 63.660156 50.976562 63.425781 50.820312 C 63.191406 50.664062 62.972656 50.488281 62.773438 50.289062 C 62.574219 50.089844 62.398438 49.875 62.242188 49.640625 C 62.082031 49.40625 61.953125 49.160156 61.84375 48.902344 C 61.734375 48.640625 61.65625 48.375 61.601562 48.097656 C 61.542969 47.824219 61.515625 47.546875 61.515625 47.265625 C 61.515625 46.984375 61.542969 46.703125 61.601562 46.429688 C 61.65625 46.152344 61.734375 45.886719 61.84375 45.625 C 61.953125 45.367188 62.082031 45.121094 62.242188 44.886719 C 62.398438 44.652344 62.574219 44.4375 62.773438 44.238281 C 62.972656 44.039062 63.191406 43.863281 63.425781 43.707031 C 63.660156 43.550781 63.90625 43.417969 64.164062 43.3125 C 64.425781 43.203125 64.695312 43.121094 64.96875 43.066406 C 65.246094 43.011719 65.527344 42.984375 65.808594 42.984375 C 66.089844 42.984375 66.367188 43.011719 66.644531 43.066406 C 66.921875 43.121094 67.1875 43.203125 67.449219 43.3125 C 67.710938 43.417969 67.957031 43.550781 68.191406 43.707031 C 68.425781 43.863281 68.640625 44.039062 68.839844 44.238281 C 69.039062 44.4375 69.21875 44.652344 69.375 44.886719 C 69.53125 45.121094 69.664062 45.367188 69.769531 45.625 C 69.878906 45.886719 69.960938 46.152344 70.015625 46.429688 C 70.070312 46.703125 70.097656 46.984375 70.097656 47.265625 Z M 70.097656 47.265625 " fill-opacity="1" fill-rule="nonzero"/></g><g clip-path="url(#272bef755a)"><path fill="#000000" d="M 70.097656 70.792969 C 70.097656 71.074219 70.070312 71.351562 70.015625 71.628906 C 69.960938 71.902344 69.878906 72.171875 69.769531 72.429688 C 69.664062 72.691406 69.53125 72.9375 69.375 73.171875 C 69.21875 73.402344 69.039062 73.621094 68.839844 73.820312 C 68.640625 74.015625 68.425781 74.195312 68.191406 74.351562 C 67.957031 74.507812 67.710938 74.636719 67.449219 74.746094 C 67.1875 74.851562 66.921875 74.933594 66.644531 74.988281 C 66.367188 75.042969 66.089844 75.070312 65.808594 75.070312 C 65.527344 75.070312 65.246094 75.042969 64.96875 74.988281 C 64.695312 74.933594 64.425781 74.851562 64.164062 74.746094 C 63.90625 74.636719 63.660156 74.507812 63.425781 74.351562 C 63.191406 74.195312 62.972656 74.015625 62.773438 73.820312 C 62.574219 73.621094 62.398438 73.402344 62.242188 73.171875 C 62.082031 72.9375 61.953125 72.691406 61.84375 72.429688 C 61.734375 72.171875 61.65625 71.902344 61.601562 71.628906 C 61.542969 71.351562 61.515625 71.074219 61.515625 70.792969 C 61.515625 70.511719 61.542969 70.234375 61.601562 69.957031 C 61.65625 69.683594 61.734375 69.414062 61.84375 69.15625 C 61.953125 68.898438 62.082031 68.648438 62.242188 68.417969 C 62.398438 68.183594 62.574219 67.96875 62.773438 67.769531 C 62.972656 67.570312 63.191406 67.390625 63.425781 67.234375 C 63.660156 67.082031 63.90625 66.949219 64.164062 66.839844 C 64.425781 66.734375 64.695312 66.652344 64.96875 66.597656 C 65.246094 66.542969 65.527344 66.515625 65.808594 66.515625 C 66.089844 66.515625 66.367188 66.542969 66.644531 66.597656 C 66.921875 66.652344 67.1875 66.734375 67.449219 66.839844 C 67.710938 66.949219 67.957031 67.082031 68.191406 67.234375 C 68.425781 67.390625 68.640625 67.570312 68.839844 67.769531 C 69.039062 67.96875 69.21875 68.183594 69.375 68.417969 C 69.53125 68.648438 69.664062 68.898438 69.769531 69.15625 C 69.878906 69.414062 69.960938 69.683594 70.015625 69.957031 C 70.070312 70.234375 70.097656 70.511719 70.097656 70.792969 Z M 70.097656 70.792969 " fill-opacity="1" fill-rule="nonzero"/></g><g clip-path="url(#de56de670f)"><path fill="#000000" d="M 22.441406 59.054688 L 33.269531 48.34375 C 34.554688 47.078125 34.554688 45.019531 33.269531 43.746094 C 31.984375 42.480469 29.90625 42.480469 28.621094 43.746094 L 17.792969 54.457031 L 6.960938 43.75 C 5.679688 42.480469 3.597656 42.480469 2.3125 43.75 C 1.027344 45.019531 1.027344 47.078125 2.3125 48.347656 L 13.140625 59.054688 L 2.285156 69.789062 C 1.003906 71.058594 1.003906 73.117188 2.285156 74.386719 C 2.925781 75.019531 3.769531 75.339844 4.609375 75.339844 C 5.449219 75.339844 6.292969 75.019531 6.933594 74.386719 L 17.789062 63.652344 L 28.621094 74.359375 C 29.261719 74.996094 30.101562 75.3125 30.945312 75.3125 C 31.785156 75.3125 32.625 74.996094 33.269531 74.359375 C 34.550781 73.089844 34.550781 71.03125 33.269531 69.761719 Z M 22.441406 59.054688 " fill-opacity="1" fill-rule="nonzero"/></g></g></g></g><g clip-path="url(#7b87449c81)"><path fill="#60ff70" d="M 86.761719 74.296875 L 76.035156 74.296875 L 76.035156 63.570312 C 76.035156 61.792969 74.59375 60.355469 72.816406 60.355469 C 71.039062 60.355469 69.597656 61.792969 69.597656 63.570312 L 69.597656 74.296875 L 58.871094 74.296875 C 57.09375 74.296875 55.652344 75.738281 55.652344 77.515625 C 55.652344 79.292969 57.09375 80.734375 58.871094 80.734375 L 69.597656 80.734375 L 69.597656 91.460938 C 69.597656 93.238281 71.039062 94.679688 72.816406 94.679688 C 74.59375 94.679688 76.035156 93.238281 76.035156 91.460938 L 76.035156 80.734375 L 86.761719 80.734375 C 88.539062 80.734375 89.976562 79.292969 89.976562 77.515625 C 89.976562 75.738281 88.539062 74.296875 86.761719 74.296875 Z M 86.761719 74.296875 " fill-opacity="1" fill-rule="nonzero"/></g><g clip-path="url(#473970eaff)"><path fill="#589da8" d="M 140.222656 77.429688 C 140.222656 79.285156 138.6875 80.789062 136.796875 80.789062 L 107.097656 80.789062 C 105.207031 80.789062 103.671875 79.285156 103.671875 77.429688 C 103.671875 75.574219 105.207031 74.070312 107.097656 74.070312 L 136.796875 74.070312 C 138.6875 74.070312 140.222656 75.574219 140.222656 77.429688 Z M 140.222656 77.429688 " fill-opacity="1" fill-rule="nonzero"/></g><g clip-path="url(#ac5b5a1429)"><path fill="#60ff70" d="M 137.988281 118.691406 C 137.988281 120.464844 136.546875 121.902344 134.769531 121.902344 L 106.882812 121.902344 C 105.105469 121.902344 103.667969 120.464844 103.667969 118.691406 C 103.667969 116.921875 105.105469 115.484375 106.882812 115.484375 L 134.769531 115.484375 C 136.546875 115.484375 137.988281 116.921875 137.988281 118.691406 Z M 137.988281 118.691406 " fill-opacity="1" fill-rule="nonzero"/></g><g clip-path="url(#a15920a2fd)"><path fill="#60ff70" d="M 125.117188 106.929688 C 125.117188 107.207031 125.089844 107.488281 125.035156 107.761719 C 124.980469 108.039062 124.898438 108.304688 124.792969 108.566406 C 124.683594 108.824219 124.550781 109.070312 124.394531 109.304688 C 124.238281 109.539062 124.058594 109.753906 123.859375 109.953125 C 123.660156 110.152344 123.445312 110.328125 123.210938 110.484375 C 122.976562 110.640625 122.730469 110.773438 122.46875 110.878906 C 122.210938 110.988281 121.941406 111.070312 121.664062 111.125 C 121.386719 111.179688 121.109375 111.207031 120.828125 111.207031 C 120.546875 111.207031 120.265625 111.179688 119.992188 111.125 C 119.714844 111.070312 119.445312 110.988281 119.1875 110.878906 C 118.925781 110.773438 118.679688 110.640625 118.445312 110.484375 C 118.210938 110.328125 117.992188 110.152344 117.792969 109.953125 C 117.59375 109.753906 117.417969 109.539062 117.261719 109.304688 C 117.105469 109.070312 116.972656 108.824219 116.863281 108.566406 C 116.757812 108.304688 116.675781 108.039062 116.621094 107.761719 C 116.566406 107.488281 116.539062 107.207031 116.539062 106.929688 C 116.539062 106.648438 116.566406 106.367188 116.621094 106.09375 C 116.675781 105.816406 116.757812 105.550781 116.863281 105.289062 C 116.972656 105.03125 117.105469 104.785156 117.261719 104.550781 C 117.417969 104.316406 117.59375 104.101562 117.792969 103.902344 C 117.992188 103.703125 118.210938 103.527344 118.445312 103.371094 C 118.679688 103.214844 118.925781 103.082031 119.1875 102.976562 C 119.445312 102.867188 119.714844 102.785156 119.992188 102.730469 C 120.265625 102.675781 120.546875 102.648438 120.828125 102.648438 C 121.109375 102.648438 121.386719 102.675781 121.664062 102.730469 C 121.941406 102.785156 122.210938 102.867188 122.46875 102.976562 C 122.730469 103.082031 122.976562 103.214844 123.210938 103.371094 C 123.445312 103.527344 123.660156 103.703125 123.859375 103.902344 C 124.058594 104.101562 124.238281 104.316406 124.394531 104.550781 C 124.550781 104.785156 124.683594 105.03125 124.792969 105.289062 C 124.898438 105.550781 124.980469 105.816406 125.035156 106.09375 C 125.089844 106.367188 125.117188 106.648438 125.117188 106.929688 Z M 125.117188 106.929688 " fill-opacity="1" fill-rule="nonzero"/></g><g clip-path="url(#6ce83a5b3d)"><path fill="#60ff70" d="M 125.117188 130.457031 C 125.117188 130.738281 125.089844 131.015625 125.035156 131.292969 C 124.980469 131.566406 124.898438 131.835938 124.792969 132.09375 C 124.683594 132.355469 124.550781 132.601562 124.394531 132.835938 C 124.238281 133.066406 124.058594 133.285156 123.859375 133.480469 C 123.660156 133.679688 123.445312 133.859375 123.210938 134.015625 C 122.976562 134.171875 122.730469 134.300781 122.46875 134.410156 C 122.210938 134.515625 121.941406 134.597656 121.664062 134.652344 C 121.386719 134.707031 121.109375 134.734375 120.828125 134.734375 C 120.546875 134.734375 120.265625 134.707031 119.992188 134.652344 C 119.714844 134.597656 119.445312 134.515625 119.1875 134.410156 C 118.925781 134.300781 118.679688 134.171875 118.445312 134.015625 C 118.210938 133.859375 117.992188 133.679688 117.792969 133.480469 C 117.59375 133.285156 117.417969 133.066406 117.261719 132.835938 C 117.105469 132.601562 116.972656 132.355469 116.863281 132.09375 C 116.757812 131.835938 116.675781 131.566406 116.621094 131.292969 C 116.566406 131.015625 116.539062 130.738281 116.539062 130.457031 C 116.539062 130.175781 116.566406 129.898438 116.621094 129.621094 C 116.675781 129.347656 116.757812 129.078125 116.863281 128.820312 C 116.972656 128.5625 117.105469 128.3125 117.261719 128.082031 C 117.417969 127.847656 117.59375 127.632812 117.792969 127.433594 C 117.992188 127.234375 118.210938 127.054688 118.445312 126.898438 C 118.679688 126.746094 118.925781 126.613281 119.1875 126.503906 C 119.445312 126.398438 119.714844 126.316406 119.992188 126.261719 C 120.265625 126.207031 120.546875 126.179688 120.828125 126.179688 C 121.109375 126.179688 121.386719 126.207031 121.664062 126.261719 C 121.941406 126.316406 122.210938 126.398438 122.46875 126.503906 C 122.730469 126.613281 122.976562 126.746094 123.210938 126.898438 C 123.445312 127.054688 123.660156 127.234375 123.859375 127.433594 C 124.058594 127.632812 124.238281 127.847656 124.394531 128.082031 C 124.550781 128.3125 124.683594 128.5625 124.792969 128.820312 C 124.898438 129.078125 124.980469 129.347656 125.035156 129.621094 C 125.089844 129.898438 125.117188 130.175781 125.117188 130.457031 Z M 125.117188 130.457031 " fill-opacity="1" fill-rule="nonzero"/></g><g clip-path="url(#48e662c634)"><path fill="#589da8" d="M 77.460938 118.71875 L 88.289062 108.007812 C 89.574219 106.742188 89.574219 104.683594 88.289062 103.410156 C 87.007812 102.144531 84.925781 102.144531 83.640625 103.410156 L 72.8125 114.121094 L 61.980469 103.414062 C 60.699219 102.144531 58.617188 102.144531 57.332031 103.414062 C 56.050781 104.683594 56.050781 106.742188 57.332031 108.011719 L 68.164062 118.71875 L 57.304688 129.453125 C 56.023438 130.722656 56.023438 132.78125 57.304688 134.050781 C 57.945312 134.683594 58.789062 135 59.628906 135 C 60.46875 135 61.3125 134.683594 61.957031 134.050781 L 72.8125 123.316406 L 83.640625 134.023438 C 84.28125 134.660156 85.125 134.976562 85.964844 134.976562 C 86.804688 134.976562 87.644531 134.660156 88.289062 134.023438 C 89.574219 132.753906 89.574219 130.695312 88.289062 129.425781 Z M 77.460938 118.71875 " fill-opacity="1" fill-rule="nonzero"/></g></svg>