<svg xmlns="http://www.w3.org/2000/svg" xmlns:xlink="http://www.w3.org/1999/xlink" width="257" zoomAndPan="magnify" viewBox="0 0 192.75 191.999996" height="256" preserveAspectRatio="xMidYMid meet" version="1.0"><defs><clipPath id="d3b26621e2"><path d="M 37.890625 37.640625 L 154.140625 37.640625 L 154.140625 153.890625 L 37.890625 153.890625 Z M 37.890625 37.640625 " clip-rule="nonzero"/></clipPath><clipPath id="0363bfc93e"><path d="M 40.117188 39.867188 L 152.617188 39.867188 L 152.617188 152.367188 L 40.117188 152.367188 Z M 40.117188 39.867188 " clip-rule="nonzero"/></clipPath></defs><g clip-path="url(#d3b26621e2)"><path fill="#f5bb3d" d="M 96.015625 37.640625 C 63.960938 37.640625 37.890625 63.710938 37.890625 95.765625 C 37.890625 127.820312 63.960938 153.890625 96.015625 153.890625 C 128.070312 153.890625 154.140625 127.820312 154.140625 95.765625 C 154.140625 63.710938 128.070312 37.640625 96.015625 37.640625 Z M 129.019531 101.859375 C 127.382812 103.472656 125.230469 104.378906 122.925781 104.378906 L 104.628906 104.378906 L 104.628906 122.675781 C 104.628906 127.433594 100.773438 131.289062 96.015625 131.289062 C 93.710938 131.289062 91.558594 130.382812 89.921875 128.769531 C 88.308594 127.132812 87.40625 124.980469 87.40625 122.675781 L 87.40625 104.378906 L 69.105469 104.378906 C 64.347656 104.378906 60.496094 100.523438 60.496094 95.765625 C 60.496094 91.007812 64.347656 87.15625 69.105469 87.15625 L 87.40625 87.15625 L 87.40625 68.855469 C 87.40625 64.101562 91.257812 60.246094 96.015625 60.246094 C 100.773438 60.246094 104.628906 64.101562 104.628906 68.855469 L 104.628906 87.15625 L 122.925781 87.15625 C 127.683594 87.15625 131.535156 91.007812 131.535156 95.765625 C 131.535156 98.070312 130.632812 100.222656 129.019531 101.859375 Z M 129.019531 101.859375 " fill-opacity="1" fill-rule="nonzero"/></g><g clip-path="url(#0363bfc93e)"><path fill="#f5bb3d" d="M 96.367188 39.867188 C 65.335938 39.867188 40.117188 65.089844 40.117188 96.117188 C 40.117188 127.144531 65.335938 152.367188 96.367188 152.367188 C 127.394531 152.367188 152.617188 127.144531 152.617188 96.117188 C 152.617188 65.089844 127.394531 39.867188 96.367188 39.867188 Z M 127.976562 101.5625 L 101.808594 101.5625 L 101.808594 127.726562 C 101.808594 130.703125 99.378906 133.167969 96.367188 133.167969 C 93.355469 133.167969 90.921875 130.703125 90.921875 127.726562 L 90.921875 101.5625 L 64.757812 101.5625 C 61.78125 101.5625 59.3125 99.128906 59.3125 96.117188 C 59.3125 93.105469 61.78125 90.671875 64.757812 90.671875 L 90.921875 90.671875 L 90.921875 64.507812 C 90.921875 61.53125 93.355469 59.066406 96.367188 59.066406 C 99.378906 59.066406 101.808594 61.53125 101.808594 64.507812 L 101.808594 90.671875 L 127.976562 90.671875 C 130.949219 90.671875 133.417969 93.105469 133.417969 96.117188 C 133.417969 99.128906 130.949219 101.5625 127.976562 101.5625 Z M 127.976562 101.5625 " fill-opacity="1" fill-rule="nonzero"/></g></svg>