<svg xmlns="http://www.w3.org/2000/svg" xmlns:xlink="http://www.w3.org/1999/xlink" width="407" zoomAndPan="magnify" viewBox="0 0 305.25 149.249994" height="199" preserveAspectRatio="xMidYMid meet" version="1.0"><defs><g/><clipPath id="04cc5fc030"><path d="M 38.226562 57.042969 L 254.113281 57.042969 L 254.113281 65.679688 L 38.226562 65.679688 Z M 38.226562 57.042969 " clip-rule="nonzero"/></clipPath><clipPath id="418afdf68f"><path d="M 42.542969 57.042969 L 249.796875 57.042969 C 252.183594 57.042969 254.113281 58.976562 254.113281 61.363281 C 254.113281 63.746094 252.183594 65.679688 249.796875 65.679688 L 42.542969 65.679688 C 40.160156 65.679688 38.226562 63.746094 38.226562 61.363281 C 38.226562 58.976562 40.160156 57.042969 42.542969 57.042969 " clip-rule="nonzero"/></clipPath><clipPath id="21721e0af6"><path d="M 38.226562 57.042969 L 131.058594 57.042969 L 131.058594 65.679688 L 38.226562 65.679688 Z M 38.226562 57.042969 " clip-rule="nonzero"/></clipPath><clipPath id="cf41f48fcb"><path d="M 42.542969 57.042969 L 126.738281 57.042969 C 129.125 57.042969 131.058594 58.976562 131.058594 61.363281 C 131.058594 63.746094 129.125 65.679688 126.738281 65.679688 L 42.542969 65.679688 C 40.160156 65.679688 38.226562 63.746094 38.226562 61.363281 C 38.226562 58.976562 40.160156 57.042969 42.542969 57.042969 " clip-rule="nonzero"/></clipPath><clipPath id="e771550b50"><path d="M 38.226562 97.011719 L 254.113281 97.011719 L 254.113281 105.648438 L 38.226562 105.648438 Z M 38.226562 97.011719 " clip-rule="nonzero"/></clipPath><clipPath id="4cdee260ee"><path d="M 42.542969 97.011719 L 249.796875 97.011719 C 252.183594 97.011719 254.113281 98.945312 254.113281 101.332031 C 254.113281 103.714844 252.183594 105.648438 249.796875 105.648438 L 42.542969 105.648438 C 40.160156 105.648438 38.226562 103.714844 38.226562 101.332031 C 38.226562 98.945312 40.160156 97.011719 42.542969 97.011719 " clip-rule="nonzero"/></clipPath><clipPath id="3dcb6e5479"><path d="M 38.226562 97.011719 L 204.460938 97.011719 L 204.460938 105.648438 L 38.226562 105.648438 Z M 38.226562 97.011719 " clip-rule="nonzero"/></clipPath><clipPath id="02ae98aed5"><path d="M 42.542969 97.011719 L 200.140625 97.011719 C 202.527344 97.011719 204.460938 98.945312 204.460938 101.332031 C 204.460938 103.714844 202.527344 105.648438 200.140625 105.648438 L 42.542969 105.648438 C 40.160156 105.648438 38.226562 103.714844 38.226562 101.332031 C 38.226562 98.945312 40.160156 97.011719 42.542969 97.011719 " clip-rule="nonzero"/></clipPath><clipPath id="1de1cf267c"><path d="M 246 45.539062 L 262 45.539062 L 262 66 L 246 66 Z M 246 45.539062 " clip-rule="nonzero"/></clipPath><clipPath id="b7c4fda78a"><path d="M 242.175781 46 L 248 46 L 248 56 L 242.175781 56 Z M 242.175781 46 " clip-rule="nonzero"/></clipPath><clipPath id="16e7cdc629"><path d="M 246 72 L 262 72 L 262 73.152344 L 246 73.152344 Z M 246 72 " clip-rule="nonzero"/></clipPath><clipPath id="d7f36a116a"><path d="M 246 83.214844 L 262 83.214844 L 262 103 L 246 103 Z M 246 83.214844 " clip-rule="nonzero"/></clipPath><clipPath id="5e5d036ca0"><path d="M 242.175781 84 L 248 84 L 248 93 L 242.175781 93 Z M 242.175781 84 " clip-rule="nonzero"/></clipPath><clipPath id="ecc11bc7e1"><path d="M 246 109 L 262 109 L 262 110.828125 L 246 110.828125 Z M 246 109 " clip-rule="nonzero"/></clipPath></defs><g clip-path="url(#04cc5fc030)"><g clip-path="url(#418afdf68f)"><path fill="#494f56" d="M 38.226562 57.042969 L 254.113281 57.042969 L 254.113281 65.679688 L 38.226562 65.679688 Z M 38.226562 57.042969 " fill-opacity="1" fill-rule="nonzero"/></g></g><g clip-path="url(#21721e0af6)"><g clip-path="url(#cf41f48fcb)"><path fill="#00bf63" d="M 38.226562 57.042969 L 254.113281 57.042969 L 254.113281 65.679688 L 38.226562 65.679688 Z M 38.226562 57.042969 " fill-opacity="1" fill-rule="nonzero"/></g></g><g clip-path="url(#e771550b50)"><g clip-path="url(#4cdee260ee)"><path fill="#494f56" d="M 38.226562 97.011719 L 254.113281 97.011719 L 254.113281 105.648438 L 38.226562 105.648438 Z M 38.226562 97.011719 " fill-opacity="1" fill-rule="nonzero"/></g></g><g clip-path="url(#3dcb6e5479)"><g clip-path="url(#02ae98aed5)"><path fill="#00bf63" d="M 38.226562 97.011719 L 254.113281 97.011719 L 254.113281 105.648438 L 38.226562 105.648438 Z M 38.226562 97.011719 " fill-opacity="1" fill-rule="nonzero"/></g></g><g clip-path="url(#1de1cf267c)"><path fill="#fbca48" d="M 261.578125 45.539062 L 261.578125 54.683594 C 261.578125 54.683594 259.957031 59.179688 255.554688 60.304688 L 255.554688 65.285156 L 252.675781 65.285156 L 252.675781 60.304688 C 248.269531 59.179688 246.652344 54.683594 246.652344 54.683594 L 246.652344 45.539062 L 261.578125 45.539062 " fill-opacity="1" fill-rule="nonzero"/></g><g clip-path="url(#b7c4fda78a)"><path fill="#fbca48" d="M 247.328125 55.101562 C 244.910156 54.609375 243.304688 53.027344 242.6875 50.527344 C 242.238281 48.714844 242.480469 47.058594 242.488281 46.988281 L 242.574219 46.441406 L 247.457031 46.441406 L 247.457031 47.726562 L 243.707031 47.726562 C 243.625 49.183594 243.773438 53.066406 247.582031 53.839844 L 247.328125 55.101562 " fill-opacity="1" fill-rule="nonzero"/></g><path fill="#fbca48" d="M 260.902344 55.101562 L 260.648438 53.839844 C 264.453125 53.070312 264.605469 49.183594 264.523438 47.726562 L 260.777344 47.726562 L 260.777344 46.441406 L 265.65625 46.441406 L 265.738281 46.988281 C 265.75 47.058594 265.992188 48.714844 265.542969 50.527344 C 264.925781 53.027344 263.320312 54.609375 260.902344 55.101562 " fill-opacity="1" fill-rule="nonzero"/><path fill="#51558f" d="M 259.050781 66.488281 L 249.179688 66.488281 L 249.796875 65.285156 L 258.355469 65.285156 L 259.050781 66.488281 " fill-opacity="1" fill-rule="nonzero"/><path fill="#51558f" d="M 260.425781 72.191406 L 247.804688 72.191406 L 247.804688 66.488281 L 260.425781 66.488281 L 260.425781 72.191406 " fill-opacity="1" fill-rule="nonzero"/><g clip-path="url(#16e7cdc629)"><path fill="#2f497b" d="M 261.46875 73.152344 L 246.761719 73.152344 L 246.761719 72.191406 L 261.46875 72.191406 L 261.46875 73.152344 " fill-opacity="1" fill-rule="nonzero"/></g><path fill="#fbca48" d="M 258.074219 71.292969 L 250.15625 71.292969 L 250.15625 67.386719 L 258.074219 67.386719 L 258.074219 71.292969 " fill-opacity="1" fill-rule="nonzero"/><g clip-path="url(#d7f36a116a)"><path fill="#fbca48" d="M 261.578125 83.214844 L 261.578125 92.359375 C 261.578125 92.359375 259.957031 96.859375 255.554688 97.980469 L 255.554688 102.960938 L 252.675781 102.960938 L 252.675781 97.980469 C 248.269531 96.859375 246.652344 92.359375 246.652344 92.359375 L 246.652344 83.214844 L 261.578125 83.214844 " fill-opacity="1" fill-rule="nonzero"/></g><g clip-path="url(#5e5d036ca0)"><path fill="#fbca48" d="M 247.328125 92.777344 C 244.910156 92.285156 243.304688 90.703125 242.6875 88.207031 C 242.238281 86.390625 242.480469 84.734375 242.488281 84.664062 L 242.574219 84.117188 L 247.457031 84.117188 L 247.457031 85.402344 L 243.707031 85.402344 C 243.625 86.859375 243.773438 90.742188 247.582031 91.515625 L 247.328125 92.777344 " fill-opacity="1" fill-rule="nonzero"/></g><path fill="#fbca48" d="M 260.902344 92.777344 L 260.648438 91.515625 C 264.453125 90.746094 264.605469 86.859375 264.523438 85.402344 L 260.777344 85.402344 L 260.777344 84.117188 L 265.65625 84.117188 L 265.738281 84.664062 C 265.75 84.734375 265.992188 86.390625 265.542969 88.207031 C 264.925781 90.703125 263.320312 92.285156 260.902344 92.777344 " fill-opacity="1" fill-rule="nonzero"/><path fill="#51558f" d="M 259.050781 104.164062 L 249.179688 104.164062 L 249.796875 102.960938 L 258.355469 102.960938 L 259.050781 104.164062 " fill-opacity="1" fill-rule="nonzero"/><path fill="#51558f" d="M 260.425781 109.867188 L 247.804688 109.867188 L 247.804688 104.164062 L 260.425781 104.164062 L 260.425781 109.867188 " fill-opacity="1" fill-rule="nonzero"/><g clip-path="url(#ecc11bc7e1)"><path fill="#2f497b" d="M 261.46875 110.828125 L 246.761719 110.828125 L 246.761719 109.867188 L 261.46875 109.867188 L 261.46875 110.828125 " fill-opacity="1" fill-rule="nonzero"/></g><path fill="#fbca48" d="M 258.074219 108.96875 L 250.15625 108.96875 L 250.15625 105.0625 L 258.074219 105.0625 L 258.074219 108.96875 " fill-opacity="1" fill-rule="nonzero"/><g fill="#000000" fill-opacity="1"><g transform="translate(40.534644, 86.25143)"><g><path d="M 5.46875 0 L 3.0625 -7.8125 L 3.015625 -7.8125 C 3.097656 -6.21875 3.140625 -5.15625 3.140625 -4.625 L 3.140625 0 L 1.25 0 L 1.25 -9.953125 L 4.125 -9.953125 L 6.484375 -2.34375 L 6.515625 -2.34375 L 9.015625 -9.953125 L 11.890625 -9.953125 L 11.890625 0 L 9.921875 0 L 9.921875 -4.703125 C 9.921875 -4.929688 9.921875 -5.1875 9.921875 -5.46875 C 9.929688 -5.757812 9.96875 -6.535156 10.03125 -7.796875 L 9.96875 -7.796875 L 7.390625 0 Z M 5.46875 0 "/></g></g><g transform="translate(53.670361, 86.25143)"><g><path d="M 5.921875 0 L 5.515625 -1.03125 L 5.46875 -1.03125 C 5.113281 -0.59375 4.75 -0.285156 4.375 -0.109375 C 4.007812 0.0546875 3.53125 0.140625 2.9375 0.140625 C 2.207031 0.140625 1.628906 -0.0664062 1.203125 -0.484375 C 0.785156 -0.898438 0.578125 -1.492188 0.578125 -2.265625 C 0.578125 -3.078125 0.859375 -3.675781 1.421875 -4.0625 C 1.992188 -4.445312 2.847656 -4.660156 3.984375 -4.703125 L 5.3125 -4.734375 L 5.3125 -5.0625 C 5.3125 -5.84375 4.914062 -6.234375 4.125 -6.234375 C 3.519531 -6.234375 2.804688 -6.046875 1.984375 -5.671875 L 1.296875 -7.078125 C 2.171875 -7.535156 3.140625 -7.765625 4.203125 -7.765625 C 5.222656 -7.765625 6.003906 -7.539062 6.546875 -7.09375 C 7.097656 -6.65625 7.375 -5.976562 7.375 -5.0625 L 7.375 0 Z M 5.3125 -3.53125 L 4.5 -3.5 C 3.894531 -3.476562 3.445312 -3.367188 3.15625 -3.171875 C 2.863281 -2.972656 2.71875 -2.671875 2.71875 -2.265625 C 2.71875 -1.671875 3.050781 -1.375 3.71875 -1.375 C 4.195312 -1.375 4.582031 -1.515625 4.875 -1.796875 C 5.164062 -2.078125 5.3125 -2.445312 5.3125 -2.90625 Z M 5.3125 -3.53125 "/></g></g><g transform="translate(62.08511, 86.25143)"><g><path d="M 4.296875 -1.515625 C 4.660156 -1.515625 5.09375 -1.59375 5.59375 -1.75 L 5.59375 -0.21875 C 5.082031 0.0195312 4.453125 0.140625 3.703125 0.140625 C 2.867188 0.140625 2.257812 -0.0664062 1.875 -0.484375 C 1.5 -0.910156 1.3125 -1.539062 1.3125 -2.375 L 1.3125 -6.046875 L 0.3125 -6.046875 L 0.3125 -6.921875 L 1.46875 -7.625 L 2.0625 -9.234375 L 3.390625 -9.234375 L 3.390625 -7.609375 L 5.515625 -7.609375 L 5.515625 -6.046875 L 3.390625 -6.046875 L 3.390625 -2.375 C 3.390625 -2.082031 3.472656 -1.863281 3.640625 -1.71875 C 3.804688 -1.582031 4.023438 -1.515625 4.296875 -1.515625 Z M 4.296875 -1.515625 "/></g></g><g transform="translate(68.132573, 86.25143)"><g><path d="M 4.234375 -6.28125 C 3.796875 -6.28125 3.453125 -6.140625 3.203125 -5.859375 C 2.953125 -5.578125 2.8125 -5.179688 2.78125 -4.671875 L 5.6875 -4.671875 C 5.675781 -5.179688 5.539062 -5.578125 5.28125 -5.859375 C 5.03125 -6.140625 4.679688 -6.28125 4.234375 -6.28125 Z M 4.53125 0.140625 C 3.300781 0.140625 2.34375 -0.195312 1.65625 -0.875 C 0.96875 -1.550781 0.625 -2.507812 0.625 -3.75 C 0.625 -5.019531 0.941406 -6.003906 1.578125 -6.703125 C 2.210938 -7.398438 3.09375 -7.75 4.21875 -7.75 C 5.300781 -7.75 6.140625 -7.441406 6.734375 -6.828125 C 7.335938 -6.210938 7.640625 -5.367188 7.640625 -4.296875 L 7.640625 -3.28125 L 2.734375 -3.28125 C 2.753906 -2.695312 2.925781 -2.238281 3.25 -1.90625 C 3.582031 -1.570312 4.039062 -1.40625 4.625 -1.40625 C 5.082031 -1.40625 5.515625 -1.453125 5.921875 -1.546875 C 6.335938 -1.640625 6.765625 -1.789062 7.203125 -2 L 7.203125 -0.40625 C 6.835938 -0.21875 6.445312 -0.0820312 6.03125 0 C 5.625 0.09375 5.125 0.140625 4.53125 0.140625 Z M 4.53125 0.140625 "/></g></g><g transform="translate(76.363654, 86.25143)"><g><path d="M 7.90625 0 L 5.828125 0 L 5.828125 -4.4375 C 5.828125 -4.988281 5.734375 -5.398438 5.546875 -5.671875 C 5.367188 -5.953125 5.082031 -6.09375 4.6875 -6.09375 C 4.15625 -6.09375 3.769531 -5.894531 3.53125 -5.5 C 3.289062 -5.113281 3.171875 -4.472656 3.171875 -3.578125 L 3.171875 0 L 1.09375 0 L 1.09375 -7.609375 L 2.671875 -7.609375 L 2.953125 -6.640625 L 3.0625 -6.640625 C 3.269531 -6.984375 3.566406 -7.253906 3.953125 -7.453125 C 4.335938 -7.648438 4.78125 -7.75 5.28125 -7.75 C 6.414062 -7.75 7.1875 -7.378906 7.59375 -6.640625 L 7.78125 -6.640625 C 7.976562 -6.992188 8.273438 -7.265625 8.671875 -7.453125 C 9.078125 -7.648438 9.53125 -7.75 10.03125 -7.75 C 10.882812 -7.75 11.53125 -7.523438 11.96875 -7.078125 C 12.414062 -6.640625 12.640625 -5.9375 12.640625 -4.96875 L 12.640625 0 L 10.5625 0 L 10.5625 -4.4375 C 10.5625 -4.988281 10.46875 -5.398438 10.28125 -5.671875 C 10.101562 -5.953125 9.816406 -6.09375 9.421875 -6.09375 C 8.910156 -6.09375 8.53125 -5.910156 8.28125 -5.546875 C 8.03125 -5.179688 7.90625 -4.601562 7.90625 -3.8125 Z M 7.90625 0 "/></g></g><g transform="translate(90.043574, 86.25143)"><g><path d="M 5.921875 0 L 5.515625 -1.03125 L 5.46875 -1.03125 C 5.113281 -0.59375 4.75 -0.285156 4.375 -0.109375 C 4.007812 0.0546875 3.53125 0.140625 2.9375 0.140625 C 2.207031 0.140625 1.628906 -0.0664062 1.203125 -0.484375 C 0.785156 -0.898438 0.578125 -1.492188 0.578125 -2.265625 C 0.578125 -3.078125 0.859375 -3.675781 1.421875 -4.0625 C 1.992188 -4.445312 2.847656 -4.660156 3.984375 -4.703125 L 5.3125 -4.734375 L 5.3125 -5.0625 C 5.3125 -5.84375 4.914062 -6.234375 4.125 -6.234375 C 3.519531 -6.234375 2.804688 -6.046875 1.984375 -5.671875 L 1.296875 -7.078125 C 2.171875 -7.535156 3.140625 -7.765625 4.203125 -7.765625 C 5.222656 -7.765625 6.003906 -7.539062 6.546875 -7.09375 C 7.097656 -6.65625 7.375 -5.976562 7.375 -5.0625 L 7.375 0 Z M 5.3125 -3.53125 L 4.5 -3.5 C 3.894531 -3.476562 3.445312 -3.367188 3.15625 -3.171875 C 2.863281 -2.972656 2.71875 -2.671875 2.71875 -2.265625 C 2.71875 -1.671875 3.050781 -1.375 3.71875 -1.375 C 4.195312 -1.375 4.582031 -1.515625 4.875 -1.796875 C 5.164062 -2.078125 5.3125 -2.445312 5.3125 -2.90625 Z M 3 -8.453125 L 3 -8.625 C 3.78125 -9.53125 4.3125 -10.210938 4.59375 -10.671875 L 6.921875 -10.671875 L 6.921875 -10.53125 C 6.679688 -10.300781 6.273438 -9.953125 5.703125 -9.484375 C 5.140625 -9.015625 4.695312 -8.671875 4.375 -8.453125 Z M 3 -8.453125 "/></g></g><g transform="translate(98.458323, 86.25143)"><g><path d="M 4.296875 -1.515625 C 4.660156 -1.515625 5.09375 -1.59375 5.59375 -1.75 L 5.59375 -0.21875 C 5.082031 0.0195312 4.453125 0.140625 3.703125 0.140625 C 2.867188 0.140625 2.257812 -0.0664062 1.875 -0.484375 C 1.5 -0.910156 1.3125 -1.539062 1.3125 -2.375 L 1.3125 -6.046875 L 0.3125 -6.046875 L 0.3125 -6.921875 L 1.46875 -7.625 L 2.0625 -9.234375 L 3.390625 -9.234375 L 3.390625 -7.609375 L 5.515625 -7.609375 L 5.515625 -6.046875 L 3.390625 -6.046875 L 3.390625 -2.375 C 3.390625 -2.082031 3.472656 -1.863281 3.640625 -1.71875 C 3.804688 -1.582031 4.023438 -1.515625 4.296875 -1.515625 Z M 4.296875 -1.515625 "/></g></g><g transform="translate(104.505787, 86.25143)"><g><path d="M 1 -9.578125 C 1 -10.253906 1.375 -10.59375 2.125 -10.59375 C 2.882812 -10.59375 3.265625 -10.253906 3.265625 -9.578125 C 3.265625 -9.253906 3.164062 -9 2.96875 -8.8125 C 2.78125 -8.632812 2.5 -8.546875 2.125 -8.546875 C 1.375 -8.546875 1 -8.890625 1 -9.578125 Z M 3.171875 0 L 1.09375 0 L 1.09375 -7.609375 L 3.171875 -7.609375 Z M 3.171875 0 "/></g></g><g transform="translate(108.757378, 86.25143)"><g><path d="M 4.171875 0.140625 C 1.804688 0.140625 0.625 -1.160156 0.625 -3.765625 C 0.625 -5.054688 0.945312 -6.039062 1.59375 -6.71875 C 2.238281 -7.40625 3.160156 -7.75 4.359375 -7.75 C 5.242188 -7.75 6.035156 -7.578125 6.734375 -7.234375 L 6.125 -5.625 C 5.789062 -5.757812 5.484375 -5.867188 5.203125 -5.953125 C 4.921875 -6.035156 4.640625 -6.078125 4.359375 -6.078125 C 3.285156 -6.078125 2.75 -5.3125 2.75 -3.78125 C 2.75 -2.289062 3.285156 -1.546875 4.359375 -1.546875 C 4.765625 -1.546875 5.132812 -1.597656 5.46875 -1.703125 C 5.8125 -1.804688 6.15625 -1.972656 6.5 -2.203125 L 6.5 -0.421875 C 6.15625 -0.210938 5.8125 -0.0664062 5.46875 0.015625 C 5.132812 0.0976562 4.703125 0.140625 4.171875 0.140625 Z M 4.171875 0.140625 "/></g></g><g transform="translate(115.920459, 86.25143)"><g><path d="M 5.921875 0 L 5.515625 -1.03125 L 5.46875 -1.03125 C 5.113281 -0.59375 4.75 -0.285156 4.375 -0.109375 C 4.007812 0.0546875 3.53125 0.140625 2.9375 0.140625 C 2.207031 0.140625 1.628906 -0.0664062 1.203125 -0.484375 C 0.785156 -0.898438 0.578125 -1.492188 0.578125 -2.265625 C 0.578125 -3.078125 0.859375 -3.675781 1.421875 -4.0625 C 1.992188 -4.445312 2.847656 -4.660156 3.984375 -4.703125 L 5.3125 -4.734375 L 5.3125 -5.0625 C 5.3125 -5.84375 4.914062 -6.234375 4.125 -6.234375 C 3.519531 -6.234375 2.804688 -6.046875 1.984375 -5.671875 L 1.296875 -7.078125 C 2.171875 -7.535156 3.140625 -7.765625 4.203125 -7.765625 C 5.222656 -7.765625 6.003906 -7.539062 6.546875 -7.09375 C 7.097656 -6.65625 7.375 -5.976562 7.375 -5.0625 L 7.375 0 Z M 5.3125 -3.53125 L 4.5 -3.5 C 3.894531 -3.476562 3.445312 -3.367188 3.15625 -3.171875 C 2.863281 -2.972656 2.71875 -2.671875 2.71875 -2.265625 C 2.71875 -1.671875 3.050781 -1.375 3.71875 -1.375 C 4.195312 -1.375 4.582031 -1.515625 4.875 -1.796875 C 5.164062 -2.078125 5.3125 -2.445312 5.3125 -2.90625 Z M 5.3125 -3.53125 "/></g></g></g><g fill="#000000" fill-opacity="1"><g transform="translate(40.534644, 50.47417)"><g><path d="M 3.359375 -5.265625 L 4.0625 -5.265625 C 4.707031 -5.265625 5.191406 -5.390625 5.515625 -5.640625 C 5.835938 -5.898438 6 -6.273438 6 -6.765625 C 6 -7.265625 5.863281 -7.628906 5.59375 -7.859375 C 5.320312 -8.097656 4.898438 -8.21875 4.328125 -8.21875 L 3.359375 -8.21875 Z M 8.125 -6.84375 C 8.125 -5.769531 7.789062 -4.945312 7.125 -4.375 C 6.457031 -3.8125 5.503906 -3.53125 4.265625 -3.53125 L 3.359375 -3.53125 L 3.359375 0 L 1.25 0 L 1.25 -9.953125 L 4.4375 -9.953125 C 5.632812 -9.953125 6.546875 -9.691406 7.171875 -9.171875 C 7.804688 -8.648438 8.125 -7.875 8.125 -6.84375 Z M 8.125 -6.84375 "/></g></g><g transform="translate(49.282719, 50.47417)"><g><path d="M 2.75 -3.8125 C 2.75 -3.0625 2.867188 -2.492188 3.109375 -2.109375 C 3.359375 -1.722656 3.765625 -1.53125 4.328125 -1.53125 C 4.878906 -1.53125 5.273438 -1.722656 5.515625 -2.109375 C 5.753906 -2.492188 5.875 -3.0625 5.875 -3.8125 C 5.875 -4.570312 5.75 -5.140625 5.5 -5.515625 C 5.257812 -5.890625 4.863281 -6.078125 4.3125 -6.078125 C 3.757812 -6.078125 3.359375 -5.890625 3.109375 -5.515625 C 2.867188 -5.140625 2.75 -4.570312 2.75 -3.8125 Z M 8 -3.8125 C 8 -2.570312 7.671875 -1.601562 7.015625 -0.90625 C 6.367188 -0.207031 5.460938 0.140625 4.296875 0.140625 C 3.566406 0.140625 2.921875 -0.0195312 2.359375 -0.34375 C 1.804688 -0.664062 1.378906 -1.125 1.078125 -1.71875 C 0.773438 -2.320312 0.625 -3.019531 0.625 -3.8125 C 0.625 -5.0625 0.945312 -6.03125 1.59375 -6.71875 C 2.25 -7.40625 3.160156 -7.75 4.328125 -7.75 C 5.066406 -7.75 5.710938 -7.585938 6.265625 -7.265625 C 6.828125 -6.953125 7.253906 -6.5 7.546875 -5.90625 C 7.847656 -5.3125 8 -4.613281 8 -3.8125 Z M 8 -3.8125 "/></g></g><g transform="translate(57.908347, 50.47417)"><g><path d="M 5.328125 -7.75 C 5.609375 -7.75 5.84375 -7.726562 6.03125 -7.6875 L 5.875 -5.75 C 5.707031 -5.789062 5.503906 -5.8125 5.265625 -5.8125 C 4.609375 -5.8125 4.09375 -5.640625 3.71875 -5.296875 C 3.351562 -4.960938 3.171875 -4.488281 3.171875 -3.875 L 3.171875 0 L 1.09375 0 L 1.09375 -7.609375 L 2.65625 -7.609375 L 2.96875 -6.328125 L 3.0625 -6.328125 C 3.300781 -6.753906 3.617188 -7.097656 4.015625 -7.359375 C 4.421875 -7.617188 4.859375 -7.75 5.328125 -7.75 Z M 5.328125 -7.75 "/></g></g><g transform="translate(64.234715, 50.47417)"><g><path d="M 4.296875 -1.515625 C 4.660156 -1.515625 5.09375 -1.59375 5.59375 -1.75 L 5.59375 -0.21875 C 5.082031 0.0195312 4.453125 0.140625 3.703125 0.140625 C 2.867188 0.140625 2.257812 -0.0664062 1.875 -0.484375 C 1.5 -0.910156 1.3125 -1.539062 1.3125 -2.375 L 1.3125 -6.046875 L 0.3125 -6.046875 L 0.3125 -6.921875 L 1.46875 -7.625 L 2.0625 -9.234375 L 3.390625 -9.234375 L 3.390625 -7.609375 L 5.515625 -7.609375 L 5.515625 -6.046875 L 3.390625 -6.046875 L 3.390625 -2.375 C 3.390625 -2.082031 3.472656 -1.863281 3.640625 -1.71875 C 3.804688 -1.582031 4.023438 -1.515625 4.296875 -1.515625 Z M 4.296875 -1.515625 "/></g></g><g transform="translate(70.282178, 50.47417)"><g><path d="M 6.484375 0 L 6.203125 -0.96875 L 6.09375 -0.96875 C 5.863281 -0.613281 5.546875 -0.335938 5.140625 -0.140625 C 4.734375 0.046875 4.269531 0.140625 3.75 0.140625 C 2.851562 0.140625 2.175781 -0.0976562 1.71875 -0.578125 C 1.269531 -1.054688 1.046875 -1.742188 1.046875 -2.640625 L 1.046875 -7.609375 L 3.125 -7.609375 L 3.125 -3.171875 C 3.125 -2.617188 3.21875 -2.203125 3.40625 -1.921875 C 3.601562 -1.648438 3.914062 -1.515625 4.34375 -1.515625 C 4.925781 -1.515625 5.347656 -1.707031 5.609375 -2.09375 C 5.867188 -2.488281 6 -3.132812 6 -4.03125 L 6 -7.609375 L 8.078125 -7.609375 L 8.078125 0 Z M 6.484375 0 "/></g></g><g transform="translate(79.438405, 50.47417)"><g><path d="M 7.703125 -7.609375 L 7.703125 -6.546875 L 6.515625 -6.25 C 6.734375 -5.90625 6.84375 -5.523438 6.84375 -5.109375 C 6.84375 -4.285156 6.554688 -3.644531 5.984375 -3.1875 C 5.421875 -2.738281 4.632812 -2.515625 3.625 -2.515625 L 3.25 -2.53125 L 2.9375 -2.5625 C 2.726562 -2.40625 2.625 -2.222656 2.625 -2.015625 C 2.625 -1.722656 3.003906 -1.578125 3.765625 -1.578125 L 5.0625 -1.578125 C 5.894531 -1.578125 6.53125 -1.394531 6.96875 -1.03125 C 7.40625 -0.675781 7.625 -0.148438 7.625 0.546875 C 7.625 1.429688 7.25 2.117188 6.5 2.609375 C 5.757812 3.097656 4.695312 3.34375 3.3125 3.34375 C 2.25 3.34375 1.4375 3.15625 0.875 2.78125 C 0.320312 2.414062 0.046875 1.898438 0.046875 1.234375 C 0.046875 0.773438 0.1875 0.390625 0.46875 0.078125 C 0.75 -0.222656 1.171875 -0.441406 1.734375 -0.578125 C 1.515625 -0.660156 1.328125 -0.804688 1.171875 -1.015625 C 1.015625 -1.222656 0.9375 -1.441406 0.9375 -1.671875 C 0.9375 -1.960938 1.019531 -2.203125 1.1875 -2.390625 C 1.351562 -2.585938 1.59375 -2.78125 1.90625 -2.96875 C 1.507812 -3.132812 1.191406 -3.410156 0.953125 -3.796875 C 0.722656 -4.179688 0.609375 -4.628906 0.609375 -5.140625 C 0.609375 -5.972656 0.878906 -6.613281 1.421875 -7.0625 C 1.960938 -7.519531 2.734375 -7.75 3.734375 -7.75 C 3.953125 -7.75 4.207031 -7.726562 4.5 -7.6875 C 4.789062 -7.65625 4.976562 -7.628906 5.0625 -7.609375 Z M 1.84375 1.078125 C 1.84375 1.359375 1.976562 1.582031 2.25 1.75 C 2.519531 1.914062 2.90625 2 3.40625 2 C 4.144531 2 4.722656 1.894531 5.140625 1.6875 C 5.566406 1.476562 5.78125 1.195312 5.78125 0.84375 C 5.78125 0.5625 5.65625 0.363281 5.40625 0.25 C 5.15625 0.144531 4.769531 0.09375 4.25 0.09375 L 3.171875 0.09375 C 2.796875 0.09375 2.476562 0.179688 2.21875 0.359375 C 1.96875 0.546875 1.84375 0.785156 1.84375 1.078125 Z M 2.59375 -5.125 C 2.59375 -4.707031 2.6875 -4.378906 2.875 -4.140625 C 3.0625 -3.898438 3.347656 -3.78125 3.734375 -3.78125 C 4.128906 -3.78125 4.414062 -3.898438 4.59375 -4.140625 C 4.769531 -4.378906 4.859375 -4.707031 4.859375 -5.125 C 4.859375 -6.039062 4.484375 -6.5 3.734375 -6.5 C 2.972656 -6.5 2.59375 -6.039062 2.59375 -5.125 Z M 2.59375 -5.125 "/></g></g><g transform="translate(87.308951, 50.47417)"><g><path d="M 6.484375 0 L 6.203125 -0.96875 L 6.09375 -0.96875 C 5.863281 -0.613281 5.546875 -0.335938 5.140625 -0.140625 C 4.734375 0.046875 4.269531 0.140625 3.75 0.140625 C 2.851562 0.140625 2.175781 -0.0976562 1.71875 -0.578125 C 1.269531 -1.054688 1.046875 -1.742188 1.046875 -2.640625 L 1.046875 -7.609375 L 3.125 -7.609375 L 3.125 -3.171875 C 3.125 -2.617188 3.21875 -2.203125 3.40625 -1.921875 C 3.601562 -1.648438 3.914062 -1.515625 4.34375 -1.515625 C 4.925781 -1.515625 5.347656 -1.707031 5.609375 -2.09375 C 5.867188 -2.488281 6 -3.132812 6 -4.03125 L 6 -7.609375 L 8.078125 -7.609375 L 8.078125 0 Z M 6.484375 0 "/></g></g><g transform="translate(96.465178, 50.47417)"><g><path d="M 4.234375 -6.28125 C 3.796875 -6.28125 3.453125 -6.140625 3.203125 -5.859375 C 2.953125 -5.578125 2.8125 -5.179688 2.78125 -4.671875 L 5.6875 -4.671875 C 5.675781 -5.179688 5.539062 -5.578125 5.28125 -5.859375 C 5.03125 -6.140625 4.679688 -6.28125 4.234375 -6.28125 Z M 4.53125 0.140625 C 3.300781 0.140625 2.34375 -0.195312 1.65625 -0.875 C 0.96875 -1.550781 0.625 -2.507812 0.625 -3.75 C 0.625 -5.019531 0.941406 -6.003906 1.578125 -6.703125 C 2.210938 -7.398438 3.09375 -7.75 4.21875 -7.75 C 5.300781 -7.75 6.140625 -7.441406 6.734375 -6.828125 C 7.335938 -6.210938 7.640625 -5.367188 7.640625 -4.296875 L 7.640625 -3.28125 L 2.734375 -3.28125 C 2.753906 -2.695312 2.925781 -2.238281 3.25 -1.90625 C 3.582031 -1.570312 4.039062 -1.40625 4.625 -1.40625 C 5.082031 -1.40625 5.515625 -1.453125 5.921875 -1.546875 C 6.335938 -1.640625 6.765625 -1.789062 7.203125 -2 L 7.203125 -0.40625 C 6.835938 -0.21875 6.445312 -0.0820312 6.03125 0 C 5.625 0.09375 5.125 0.140625 4.53125 0.140625 Z M 5.84375 -8.453125 C 5.132812 -8.867188 4.601562 -9.265625 4.25 -9.640625 C 3.894531 -9.273438 3.375 -8.878906 2.6875 -8.453125 L 1.3125 -8.453125 L 1.3125 -8.625 C 2.164062 -9.488281 2.75 -10.171875 3.0625 -10.671875 L 5.484375 -10.671875 C 5.628906 -10.441406 5.875 -10.125 6.21875 -9.71875 C 6.5625 -9.3125 6.898438 -8.945312 7.234375 -8.625 L 7.234375 -8.453125 Z M 5.84375 -8.453125 "/></g></g><g transform="translate(104.696258, 50.47417)"><g><path d="M 6.390625 -2.265625 C 6.390625 -1.484375 6.117188 -0.882812 5.578125 -0.46875 C 5.035156 -0.0625 4.226562 0.140625 3.15625 0.140625 C 2.601562 0.140625 2.128906 0.0976562 1.734375 0.015625 C 1.347656 -0.0546875 0.984375 -0.164062 0.640625 -0.3125 L 0.640625 -2.015625 C 1.023438 -1.835938 1.457031 -1.6875 1.9375 -1.5625 C 2.425781 -1.4375 2.851562 -1.375 3.21875 -1.375 C 3.96875 -1.375 4.34375 -1.59375 4.34375 -2.03125 C 4.34375 -2.195312 4.289062 -2.332031 4.1875 -2.4375 C 4.09375 -2.539062 3.921875 -2.65625 3.671875 -2.78125 C 3.429688 -2.90625 3.109375 -3.054688 2.703125 -3.234375 C 2.117188 -3.472656 1.6875 -3.695312 1.40625 -3.90625 C 1.132812 -4.113281 0.9375 -4.351562 0.8125 -4.625 C 0.6875 -4.894531 0.625 -5.226562 0.625 -5.625 C 0.625 -6.300781 0.882812 -6.820312 1.40625 -7.1875 C 1.9375 -7.5625 2.679688 -7.75 3.640625 -7.75 C 4.554688 -7.75 5.445312 -7.550781 6.3125 -7.15625 L 5.6875 -5.65625 C 5.3125 -5.820312 4.957031 -5.957031 4.625 -6.0625 C 4.289062 -6.164062 3.953125 -6.21875 3.609375 -6.21875 C 2.992188 -6.21875 2.6875 -6.050781 2.6875 -5.71875 C 2.6875 -5.53125 2.785156 -5.367188 2.984375 -5.234375 C 3.179688 -5.097656 3.613281 -4.894531 4.28125 -4.625 C 4.875 -4.382812 5.304688 -4.160156 5.578125 -3.953125 C 5.859375 -3.742188 6.0625 -3.503906 6.1875 -3.234375 C 6.320312 -2.960938 6.390625 -2.640625 6.390625 -2.265625 Z M 6.390625 -2.265625 "/></g></g></g></svg>