<svg xmlns="http://www.w3.org/2000/svg" xmlns:xlink="http://www.w3.org/1999/xlink" width="308" zoomAndPan="magnify" viewBox="0 0 230.87999 246.749995" height="329" preserveAspectRatio="xMidYMid meet" version="1.0"><defs><clipPath id="2b69617dc6"><path d="M 37.695312 37.71875 L 193.535156 37.71875 L 193.535156 194 L 37.695312 194 Z M 37.695312 37.71875 " clip-rule="nonzero"/></clipPath><clipPath id="679fbba1f1"><path d="M 70 150 L 162 150 L 162 208.546875 L 70 208.546875 Z M 70 150 " clip-rule="nonzero"/></clipPath><clipPath id="d5810b9906"><path d="M 37.695312 37.71875 L 193.535156 37.71875 L 193.535156 194 L 37.695312 194 Z M 37.695312 37.71875 " clip-rule="nonzero"/></clipPath><clipPath id="e79927be71"><path d="M 70 150 L 162 150 L 162 208.546875 L 70 208.546875 Z M 70 150 " clip-rule="nonzero"/></clipPath></defs><g clip-path="url(#2b69617dc6)"><path fill="#f366ba" d="M 37.71875 115.535156 C 37.71875 158.464844 72.601562 193.261719 115.636719 193.261719 C 158.675781 193.261719 193.558594 158.464844 193.558594 115.535156 C 193.558594 72.609375 158.675781 37.808594 115.636719 37.808594 C 72.601562 37.808594 37.71875 72.609375 37.71875 115.535156 " fill-opacity="1" fill-rule="nonzero"/></g><path fill="#23255d" d="M 149.859375 95.253906 L 149.859375 169.847656 L 83.589844 169.847656 L 83.589844 98.332031 L 149.859375 95.253906 " fill-opacity="1" fill-rule="nonzero"/><path fill="#23255d" d="M 148.285156 109.28125 C 148.285156 109.28125 146.148438 127.59375 158.054688 127.34375 C 158.054688 127.34375 152.855469 133.78125 148.136719 131.058594 C 143.417969 128.335938 145.707031 112.25 145.707031 112.25 L 148.382812 108.042969 " fill-opacity="1" fill-rule="nonzero"/><g clip-path="url(#679fbba1f1)"><path fill="#ffffff" d="M 161.097656 193.476562 C 157.246094 196.347656 153.109375 198.859375 148.738281 200.964844 C 148.074219 201.285156 147.402344 201.59375 146.734375 201.894531 C 137.238281 206.140625 126.71875 208.503906 115.640625 208.503906 C 104.558594 208.503906 94.042969 206.140625 84.550781 201.894531 C 83.871094 201.59375 83.199219 201.285156 82.542969 200.964844 C 78.171875 198.855469 74.03125 196.347656 70.183594 193.476562 C 70.855469 178.449219 78.859375 165.324219 90.710938 157.574219 C 97.871094 152.886719 106.4375 150.167969 115.640625 150.167969 C 117.042969 150.167969 118.433594 150.230469 119.796875 150.355469 C 127.421875 151.042969 134.5 153.601562 140.566406 157.574219 C 146.023438 161.144531 150.664062 165.851562 154.144531 171.355469 C 158.234375 177.8125 160.730469 185.371094 161.097656 193.476562 " fill-opacity="1" fill-rule="nonzero"/></g><path fill="#fbd5c0" d="M 140.566406 157.574219 C 139.871094 162.816406 137.554688 167.550781 134.125 171.253906 C 129.53125 176.21875 122.953125 179.332031 115.640625 179.332031 C 103.925781 179.332031 94.082031 171.339844 91.289062 160.519531 C 91.039062 159.558594 90.847656 158.574219 90.710938 157.574219 C 97.871094 152.886719 106.4375 150.167969 115.640625 150.167969 C 117.042969 150.167969 118.433594 150.226562 119.800781 150.355469 C 120.039062 150.375 120.277344 150.398438 120.511719 150.421875 C 120.660156 150.4375 120.808594 150.453125 120.953125 150.472656 C 121.117188 150.488281 121.28125 150.511719 121.441406 150.53125 C 121.539062 150.542969 121.644531 150.558594 121.742188 150.570312 C 121.886719 150.585938 122.035156 150.613281 122.183594 150.632812 C 122.296875 150.644531 122.414062 150.667969 122.53125 150.679688 C 122.628906 150.695312 122.730469 150.710938 122.828125 150.730469 C 122.996094 150.753906 123.160156 150.785156 123.328125 150.808594 C 124.054688 150.933594 124.773438 151.070312 125.484375 151.230469 L 125.960938 151.335938 C 126.050781 151.359375 126.144531 151.378906 126.234375 151.402344 C 126.402344 151.441406 126.574219 151.484375 126.738281 151.527344 C 126.769531 151.53125 126.792969 151.539062 126.8125 151.542969 C 127.027344 151.597656 127.238281 151.652344 127.449219 151.710938 C 127.675781 151.765625 127.898438 151.828125 128.117188 151.894531 C 128.371094 151.960938 128.617188 152.035156 128.871094 152.109375 C 129.066406 152.171875 129.257812 152.230469 129.453125 152.292969 C 129.578125 152.332031 129.707031 152.375 129.824219 152.414062 C 130.027344 152.476562 130.230469 152.546875 130.429688 152.617188 C 130.679688 152.699219 130.921875 152.785156 131.164062 152.875 C 131.183594 152.882812 131.199219 152.886719 131.214844 152.894531 C 131.46875 152.980469 131.714844 153.078125 131.964844 153.171875 C 132.148438 153.246094 132.335938 153.3125 132.523438 153.394531 C 133.015625 153.585938 133.496094 153.789062 133.972656 153.996094 L 134.597656 154.277344 C 134.785156 154.363281 134.976562 154.453125 135.164062 154.542969 C 135.335938 154.625 135.503906 154.703125 135.675781 154.789062 C 135.832031 154.863281 135.988281 154.941406 136.140625 155.019531 C 136.238281 155.070312 136.34375 155.121094 136.445312 155.175781 C 136.855469 155.382812 137.257812 155.601562 137.652344 155.816406 C 137.796875 155.898438 137.945312 155.980469 138.085938 156.0625 C 138.179688 156.113281 138.269531 156.164062 138.359375 156.214844 L 138.695312 156.410156 L 139.039062 156.621094 L 139.261719 156.753906 C 139.476562 156.878906 139.683594 157.007812 139.890625 157.140625 C 140.121094 157.28125 140.34375 157.425781 140.566406 157.574219 " fill-opacity="1" fill-rule="nonzero"/><path fill="#fbd5c0" d="M 124.402344 139.996094 L 124.402344 157.1875 C 124.402344 161.539062 120.835938 165.101562 116.476562 165.101562 L 114.800781 165.101562 C 110.445312 165.101562 106.882812 161.539062 106.882812 157.1875 L 106.882812 139.996094 C 106.882812 135.644531 110.445312 132.085938 114.800781 132.085938 L 116.476562 132.085938 C 120.835938 132.085938 124.402344 135.644531 124.402344 139.996094 " fill-opacity="1" fill-rule="nonzero"/><path fill="#f8a29e" d="M 124.402344 139.996094 L 124.402344 149.09375 C 121.796875 150.539062 119.035156 151.378906 116.230469 151.378906 C 112.921875 151.378906 109.765625 150.457031 106.882812 148.859375 L 106.882812 139.996094 C 106.882812 135.644531 110.445312 132.085938 114.800781 132.085938 L 116.476562 132.085938 C 120.835938 132.085938 124.402344 135.644531 124.402344 139.996094 " fill-opacity="1" fill-rule="nonzero"/><path fill="#fbd5c0" d="M 142.65625 129.335938 C 142.65625 129.335938 147.84375 127.574219 151.160156 121.800781 C 154.761719 115.535156 152.5 111.632812 151.785156 110.785156 C 149.835938 108.472656 146.824219 109.960938 146.328125 110.785156 C 145.832031 111.613281 138.644531 124.628906 142.65625 129.335938 " fill-opacity="1" fill-rule="nonzero"/><path fill="#f8a29e" d="M 147.742188 112.839844 C 147.742188 112.839844 151.035156 113.261719 149.878906 117.878906 C 148.71875 122.5 145.675781 124.328125 141.539062 126.6875 C 137.40625 129.046875 143.609375 113.78125 147.742188 112.839844 " fill-opacity="1" fill-rule="nonzero"/><path fill="#fbd5c0" d="M 89.972656 129.335938 C 89.972656 129.335938 84.785156 127.574219 81.46875 121.800781 C 77.863281 115.535156 80.125 111.632812 80.839844 110.785156 C 82.789062 108.472656 85.800781 109.960938 86.296875 110.785156 C 86.792969 111.613281 93.984375 124.628906 89.972656 129.335938 " fill-opacity="1" fill-rule="nonzero"/><path fill="#f8a29e" d="M 84.882812 112.839844 C 84.882812 112.839844 81.59375 113.261719 82.75 117.878906 C 83.90625 122.5 86.953125 124.328125 91.085938 126.6875 C 95.222656 129.046875 89.019531 113.78125 84.882812 112.839844 " fill-opacity="1" fill-rule="nonzero"/><path fill="#fbd5c0" d="M 147.742188 109.789062 C 147.742188 90.820312 133.703125 75.4375 116.382812 75.4375 C 99.066406 75.4375 85.023438 90.820312 85.023438 109.789062 C 85.023438 128.761719 99.066406 148.59375 116.382812 148.59375 C 132.65625 148.59375 147.742188 128.601562 147.742188 109.789062 " fill-opacity="1" fill-rule="nonzero"/><path fill="#23255d" d="M 119.207031 95.9375 C 119.207031 95.9375 125.105469 114.867188 147.292969 112.992188 C 147.292969 112.992188 151.167969 107.40625 149.859375 95.253906 C 148.382812 81.5625 136.21875 70.039062 116.382812 74.160156 C 116.382812 74.160156 114.574219 83.898438 119.207031 95.9375 " fill-opacity="1" fill-rule="nonzero"/><path fill="#23255d" d="M 120.199219 75.4375 C 120.199219 75.4375 121.023438 71.855469 118.046875 69.050781 C 115.070312 66.242188 75.648438 72.003906 85.023438 109.789062 C 85.023438 109.789062 94.210938 87.191406 118.542969 85.214844 L 120.199219 75.4375 " fill-opacity="1" fill-rule="nonzero"/><g clip-path="url(#d5810b9906)"><path fill="#f366ba" d="M 37.71875 115.535156 C 37.71875 158.464844 72.601562 193.261719 115.636719 193.261719 C 158.675781 193.261719 193.558594 158.464844 193.558594 115.535156 C 193.558594 72.609375 158.675781 37.808594 115.636719 37.808594 C 72.601562 37.808594 37.71875 72.609375 37.71875 115.535156 " fill-opacity="1" fill-rule="nonzero"/></g><path fill="#23255d" d="M 149.859375 95.253906 L 149.859375 169.847656 L 83.589844 169.847656 L 83.589844 98.332031 L 149.859375 95.253906 " fill-opacity="1" fill-rule="nonzero"/><path fill="#23255d" d="M 148.285156 109.28125 C 148.285156 109.28125 146.148438 127.59375 158.054688 127.34375 C 158.054688 127.34375 152.855469 133.78125 148.136719 131.058594 C 143.417969 128.335938 145.707031 112.25 145.707031 112.25 L 148.382812 108.042969 " fill-opacity="1" fill-rule="nonzero"/><g clip-path="url(#e79927be71)"><path fill="#ffffff" d="M 161.097656 193.476562 C 157.246094 196.347656 153.109375 198.859375 148.738281 200.964844 C 148.074219 201.285156 147.402344 201.59375 146.734375 201.894531 C 137.238281 206.140625 126.71875 208.503906 115.640625 208.503906 C 104.558594 208.503906 94.042969 206.140625 84.550781 201.894531 C 83.871094 201.59375 83.199219 201.285156 82.542969 200.964844 C 78.171875 198.855469 74.03125 196.347656 70.183594 193.476562 C 70.855469 178.449219 78.859375 165.324219 90.710938 157.574219 C 97.871094 152.886719 106.4375 150.167969 115.640625 150.167969 C 117.042969 150.167969 118.433594 150.230469 119.796875 150.355469 C 127.421875 151.042969 134.5 153.601562 140.566406 157.574219 C 146.023438 161.144531 150.664062 165.851562 154.144531 171.355469 C 158.234375 177.8125 160.730469 185.371094 161.097656 193.476562 " fill-opacity="1" fill-rule="nonzero"/></g><path fill="#fbd5c0" d="M 140.566406 157.574219 C 139.871094 162.816406 137.554688 167.550781 134.125 171.253906 C 129.53125 176.21875 122.953125 179.332031 115.640625 179.332031 C 103.925781 179.332031 94.082031 171.339844 91.289062 160.519531 C 91.039062 159.558594 90.847656 158.574219 90.710938 157.574219 C 97.871094 152.886719 106.4375 150.167969 115.640625 150.167969 C 117.042969 150.167969 118.433594 150.226562 119.800781 150.355469 C 120.039062 150.375 120.277344 150.398438 120.511719 150.421875 C 120.660156 150.4375 120.808594 150.453125 120.953125 150.472656 C 121.117188 150.488281 121.28125 150.511719 121.441406 150.53125 C 121.539062 150.542969 121.644531 150.558594 121.742188 150.570312 C 121.886719 150.585938 122.035156 150.613281 122.183594 150.632812 C 122.296875 150.644531 122.414062 150.667969 122.53125 150.679688 C 122.628906 150.695312 122.730469 150.710938 122.828125 150.730469 C 122.996094 150.753906 123.160156 150.785156 123.328125 150.808594 C 124.054688 150.933594 124.773438 151.070312 125.484375 151.230469 L 125.960938 151.335938 C 126.050781 151.359375 126.144531 151.378906 126.234375 151.402344 C 126.402344 151.441406 126.574219 151.484375 126.738281 151.527344 C 126.769531 151.53125 126.792969 151.539062 126.8125 151.542969 C 127.027344 151.597656 127.238281 151.652344 127.449219 151.710938 C 127.675781 151.765625 127.898438 151.828125 128.117188 151.894531 C 128.371094 151.960938 128.617188 152.035156 128.871094 152.109375 C 129.066406 152.171875 129.257812 152.230469 129.453125 152.292969 C 129.578125 152.332031 129.707031 152.375 129.824219 152.414062 C 130.027344 152.476562 130.230469 152.546875 130.429688 152.617188 C 130.679688 152.699219 130.921875 152.785156 131.164062 152.875 C 131.183594 152.882812 131.199219 152.886719 131.214844 152.894531 C 131.46875 152.980469 131.714844 153.078125 131.964844 153.171875 C 132.148438 153.246094 132.335938 153.3125 132.523438 153.394531 C 133.015625 153.585938 133.496094 153.789062 133.972656 153.996094 L 134.597656 154.277344 C 134.785156 154.363281 134.976562 154.453125 135.164062 154.542969 C 135.335938 154.625 135.503906 154.703125 135.675781 154.789062 C 135.832031 154.863281 135.988281 154.941406 136.140625 155.019531 C 136.238281 155.070312 136.34375 155.121094 136.445312 155.175781 C 136.855469 155.382812 137.257812 155.601562 137.652344 155.816406 C 137.796875 155.898438 137.945312 155.980469 138.085938 156.0625 C 138.179688 156.113281 138.269531 156.164062 138.359375 156.214844 L 138.695312 156.410156 L 139.039062 156.621094 L 139.261719 156.753906 C 139.476562 156.878906 139.683594 157.007812 139.890625 157.140625 C 140.121094 157.28125 140.34375 157.425781 140.566406 157.574219 " fill-opacity="1" fill-rule="nonzero"/><path fill="#fbd5c0" d="M 124.402344 139.996094 L 124.402344 157.1875 C 124.402344 161.539062 120.835938 165.101562 116.476562 165.101562 L 114.800781 165.101562 C 110.445312 165.101562 106.882812 161.539062 106.882812 157.1875 L 106.882812 139.996094 C 106.882812 135.644531 110.445312 132.085938 114.800781 132.085938 L 116.476562 132.085938 C 120.835938 132.085938 124.402344 135.644531 124.402344 139.996094 " fill-opacity="1" fill-rule="nonzero"/><path fill="#f8a29e" d="M 124.402344 139.996094 L 124.402344 149.09375 C 121.796875 150.539062 119.035156 151.378906 116.230469 151.378906 C 112.921875 151.378906 109.765625 150.457031 106.882812 148.859375 L 106.882812 139.996094 C 106.882812 135.644531 110.445312 132.085938 114.800781 132.085938 L 116.476562 132.085938 C 120.835938 132.085938 124.402344 135.644531 124.402344 139.996094 " fill-opacity="1" fill-rule="nonzero"/><path fill="#fbd5c0" d="M 142.65625 129.335938 C 142.65625 129.335938 147.84375 127.574219 151.160156 121.800781 C 154.761719 115.535156 152.5 111.632812 151.785156 110.785156 C 149.835938 108.472656 146.824219 109.960938 146.328125 110.785156 C 145.832031 111.613281 138.644531 124.628906 142.65625 129.335938 " fill-opacity="1" fill-rule="nonzero"/><path fill="#f8a29e" d="M 147.742188 112.839844 C 147.742188 112.839844 151.035156 113.261719 149.878906 117.878906 C 148.71875 122.5 145.675781 124.328125 141.539062 126.6875 C 137.40625 129.046875 143.609375 113.78125 147.742188 112.839844 " fill-opacity="1" fill-rule="nonzero"/><path fill="#fbd5c0" d="M 89.972656 129.335938 C 89.972656 129.335938 84.785156 127.574219 81.46875 121.800781 C 77.863281 115.535156 80.125 111.632812 80.839844 110.785156 C 82.789062 108.472656 85.800781 109.960938 86.296875 110.785156 C 86.792969 111.613281 93.984375 124.628906 89.972656 129.335938 " fill-opacity="1" fill-rule="nonzero"/><path fill="#f8a29e" d="M 84.882812 112.839844 C 84.882812 112.839844 81.59375 113.261719 82.75 117.878906 C 83.90625 122.5 86.953125 124.328125 91.085938 126.6875 C 95.222656 129.046875 89.019531 113.78125 84.882812 112.839844 " fill-opacity="1" fill-rule="nonzero"/><path fill="#fbd5c0" d="M 147.742188 109.789062 C 147.742188 90.820312 133.703125 75.4375 116.382812 75.4375 C 99.066406 75.4375 85.023438 90.820312 85.023438 109.789062 C 85.023438 128.761719 99.066406 148.59375 116.382812 148.59375 C 132.65625 148.59375 147.742188 128.601562 147.742188 109.789062 " fill-opacity="1" fill-rule="nonzero"/><path fill="#23255d" d="M 119.207031 95.9375 C 119.207031 95.9375 125.105469 114.867188 147.292969 112.992188 C 147.292969 112.992188 151.167969 107.40625 149.859375 95.253906 C 148.382812 81.5625 136.21875 70.039062 116.382812 74.160156 C 116.382812 74.160156 114.574219 83.898438 119.207031 95.9375 " fill-opacity="1" fill-rule="nonzero"/><path fill="#23255d" d="M 120.199219 75.4375 C 120.199219 75.4375 121.023438 71.855469 118.046875 69.050781 C 115.070312 66.242188 75.648438 72.003906 85.023438 109.789062 C 85.023438 109.789062 94.210938 87.191406 118.542969 85.214844 L 120.199219 75.4375 " fill-opacity="1" fill-rule="nonzero"/></svg>