<svg xmlns="http://www.w3.org/2000/svg" xmlns:xlink="http://www.w3.org/1999/xlink" width="260" zoomAndPan="magnify" viewBox="0 0 194.87999 195.000001" height="260" preserveAspectRatio="xMidYMid meet" version="1.0"><defs><clipPath id="8819faa04a"><path d="M 37.746094 37.308594 L 157.132812 37.308594 L 157.132812 156.695312 L 37.746094 156.695312 Z M 37.746094 37.308594 " clip-rule="nonzero"/></clipPath><clipPath id="4423801e0c"><path d="M 97.441406 37.308594 C 64.472656 37.308594 37.746094 64.035156 37.746094 97.003906 C 37.746094 129.96875 64.472656 156.695312 97.441406 156.695312 C 130.40625 156.695312 157.132812 129.96875 157.132812 97.003906 C 157.132812 64.035156 130.40625 37.308594 97.441406 37.308594 " clip-rule="nonzero"/></clipPath><clipPath id="1a1b882015"><path d="M 58.339844 95.457031 L 95.90625 95.457031 L 95.90625 129.191406 L 58.339844 129.191406 Z M 58.339844 95.457031 " clip-rule="nonzero"/></clipPath><clipPath id="2b7c85f28f"><path d="M 72.140625 64.804688 L 89.007812 64.804688 L 89.007812 129.203125 L 72.140625 129.203125 Z M 72.140625 64.804688 " clip-rule="nonzero"/></clipPath><clipPath id="52d9c58ae4"><path d="M 88 64.804688 L 121 64.804688 L 121 97 L 88 97 Z M 88 64.804688 " clip-rule="nonzero"/></clipPath><clipPath id="bcc61370b6"><path d="M 72.148438 96.855469 L 104.375 96.855469 L 104.375 129.011719 L 72.148438 129.011719 Z M 72.148438 96.855469 " clip-rule="nonzero"/></clipPath><clipPath id="91049d8f15"><path d="M 104.199219 96.855469 L 136.347656 96.855469 L 136.347656 129.011719 L 104.199219 129.011719 Z M 104.199219 96.855469 " clip-rule="nonzero"/></clipPath></defs><g clip-path="url(#8819faa04a)"><g clip-path="url(#4423801e0c)"><path fill="#f5bb3d" d="M 37.746094 37.308594 L 157.132812 37.308594 L 157.132812 156.695312 L 37.746094 156.695312 Z M 37.746094 37.308594 " fill-opacity="1" fill-rule="nonzero"/></g></g><g clip-path="url(#1a1b882015)"><path fill="#545454" d="M 58.339844 129.191406 L 58.339844 95.648438 L 95.714844 95.648438 L 95.714844 129.191406 Z M 58.339844 129.191406 " fill-opacity="1" fill-rule="nonzero"/></g><g clip-path="url(#2b7c85f28f)"><path fill="#545454" d="M 72.140625 64.804688 L 89.390625 64.804688 L 89.390625 129.011719 L 72.140625 129.011719 Z M 72.140625 64.804688 " fill-opacity="1" fill-rule="nonzero"/></g><g clip-path="url(#52d9c58ae4)"><path fill="#82ad4e" d="M 104.25 96.90625 L 120.300781 96.90625 L 120.300781 64.804688 L 88.195312 64.804688 L 88.195312 96.90625 L 104.25 96.90625 " fill-opacity="1" fill-rule="evenodd"/></g><path fill="#ffffff" d="M 100.609375 83.683594 L 106.613281 83.683594 L 108.285156 88.035156 L 110.453125 88.035156 L 104.574219 73.675781 L 102.53125 73.675781 L 97.015625 88.035156 L 99.03125 88.035156 Z M 103.507812 75.183594 C 103.730469 75.960938 104.070312 76.953125 104.527344 78.160156 L 106.027344 82.136719 L 101.15625 82.136719 L 102.734375 77.929688 C 103.066406 77.019531 103.324219 76.105469 103.507812 75.183594 " fill-opacity="1" fill-rule="evenodd"/><g clip-path="url(#bcc61370b6)"><path fill="#de6724" d="M 104.253906 96.914062 L 72.148438 96.914062 L 72.148438 129.019531 L 104.253906 129.019531 L 104.253906 96.914062 " fill-opacity="1" fill-rule="evenodd"/></g><g clip-path="url(#91049d8f15)"><path fill="#589da8" d="M 104.242188 96.914062 L 104.242188 129.019531 L 136.347656 129.019531 L 136.347656 96.914062 L 104.242188 96.914062 " fill-opacity="1" fill-rule="evenodd"/></g><path fill="#ffffff" d="M 88.140625 113.515625 C 89.054688 113.515625 89.757812 113.597656 90.242188 113.753906 C 90.730469 113.914062 91.109375 114.191406 91.386719 114.585938 C 91.660156 114.984375 91.796875 115.449219 91.796875 115.984375 C 91.796875 116.441406 91.699219 116.84375 91.511719 117.195312 C 91.320312 117.542969 91.082031 117.808594 90.785156 117.992188 C 90.492188 118.175781 90.128906 118.304688 89.691406 118.386719 C 89.441406 118.429688 89.011719 118.453125 88.398438 118.453125 L 84.824219 118.453125 L 84.824219 113.515625 Z M 90.828125 110.941406 C 90.585938 111.273438 90.222656 111.511719 89.742188 111.65625 C 89.371094 111.765625 88.765625 111.824219 87.929688 111.824219 L 84.824219 111.824219 L 84.824219 107.484375 L 87.691406 107.484375 C 88.722656 107.484375 89.453125 107.550781 89.878906 107.683594 C 90.296875 107.816406 90.625 108.066406 90.855469 108.429688 C 91.085938 108.789062 91.199219 109.210938 91.199219 109.6875 C 91.199219 110.1875 91.074219 110.605469 90.828125 110.941406 Z M 93.070312 109.460938 C 93.070312 108.800781 92.878906 108.167969 92.503906 107.566406 C 92.132812 106.960938 91.613281 106.515625 90.945312 106.222656 C 90.285156 105.933594 89.40625 105.789062 88.308594 105.789062 L 82.921875 105.789062 L 82.921875 120.148438 L 88.398438 120.148438 C 89.3125 120.148438 90.085938 120.066406 90.714844 119.90625 C 91.339844 119.746094 91.867188 119.511719 92.285156 119.199219 C 92.703125 118.882812 93.054688 118.4375 93.335938 117.859375 C 93.621094 117.28125 93.765625 116.65625 93.765625 115.984375 C 93.765625 115.148438 93.53125 114.421875 93.0625 113.808594 C 92.59375 113.195312 91.929688 112.761719 91.0625 112.507812 C 91.734375 112.171875 92.238281 111.734375 92.570312 111.195312 C 92.902344 110.652344 93.070312 110.074219 93.070312 109.460938 " fill-opacity="1" fill-rule="evenodd"/><path fill="#ffffff" d="M 115.421875 108.945312 C 114.851562 110.058594 114.566406 111.363281 114.566406 112.859375 C 114.566406 114.226562 114.820312 115.511719 115.324219 116.707031 C 115.832031 117.902344 116.570312 118.8125 117.539062 119.445312 C 118.507812 120.074219 119.765625 120.390625 121.3125 120.390625 C 122.8125 120.390625 124.074219 119.980469 125.109375 119.164062 C 126.144531 118.339844 126.863281 117.148438 127.261719 115.589844 L 125.359375 115.109375 C 125.097656 116.316406 124.597656 117.230469 123.859375 117.84375 C 123.121094 118.457031 122.222656 118.765625 121.160156 118.765625 C 120.285156 118.765625 119.472656 118.539062 118.71875 118.089844 C 117.964844 117.636719 117.414062 116.957031 117.058594 116.046875 C 116.703125 115.132812 116.527344 114.070312 116.527344 112.847656 C 116.527344 111.902344 116.675781 110.980469 116.976562 110.09375 C 117.273438 109.199219 117.796875 108.492188 118.539062 107.960938 C 119.28125 107.429688 120.199219 107.167969 121.304688 107.167969 C 122.265625 107.167969 123.0625 107.40625 123.695312 107.882812 C 124.328125 108.359375 124.808594 109.121094 125.144531 110.167969 L 127.011719 109.726562 C 126.628906 108.398438 125.945312 107.371094 124.96875 106.640625 C 123.988281 105.90625 122.78125 105.542969 121.34375 105.542969 C 120.078125 105.542969 118.917969 105.828125 117.863281 106.410156 C 116.808594 106.988281 115.996094 107.832031 115.421875 108.945312 " fill-opacity="1" fill-rule="evenodd"/><path stroke-linecap="butt" transform="matrix(0.000000000000000059, 0.96991, -0.958321, 0.000000000000000059, 105.774383, 97.005552)" fill="none" stroke-linejoin="miter" d="M -0.00169647 1.501006 L 33.599206 1.501006 " stroke="#545454" stroke-width="3" stroke-opacity="1" stroke-miterlimit="4"/></svg>