<svg xmlns="http://www.w3.org/2000/svg" xmlns:xlink="http://www.w3.org/1999/xlink" width="395" zoomAndPan="magnify" viewBox="0 0 296.25 295.500005" height="394" preserveAspectRatio="xMidYMid meet" version="1.0"><defs><clipPath id="1b6ddc3bb3"><path d="M 70 69 L 226 69 L 226 226 L 70 226 Z M 70 69 " clip-rule="nonzero"/></clipPath><clipPath id="bfc378f460"><path d="M 139.808594 37.53125 L 257.863281 138.902344 L 156.492188 256.957031 L 38.4375 155.585938 Z M 139.808594 37.53125 " clip-rule="nonzero"/></clipPath><clipPath id="c34a5fb397"><path d="M 139.808594 37.53125 L 257.863281 138.902344 L 156.492188 256.957031 L 38.4375 155.585938 Z M 139.808594 37.53125 " clip-rule="nonzero"/></clipPath><clipPath id="94b8b5c06b"><path d="M 69 69 L 225 69 L 225 226 L 69 226 Z M 69 69 " clip-rule="nonzero"/></clipPath><clipPath id="890cd89ca7"><path d="M 138.785156 37.53125 L 256.839844 138.902344 L 155.46875 256.957031 L 37.414062 155.585938 Z M 138.785156 37.53125 " clip-rule="nonzero"/></clipPath><clipPath id="9edb05c152"><path d="M 138.785156 37.53125 L 256.839844 138.902344 L 155.46875 256.957031 L 37.414062 155.585938 Z M 138.785156 37.53125 " clip-rule="nonzero"/></clipPath></defs><g clip-path="url(#1b6ddc3bb3)"><g clip-path="url(#bfc378f460)"><g clip-path="url(#c34a5fb397)"><path fill="#f83c3c" d="M 198.835938 88.214844 C 166.273438 60.257812 117.082031 63.996094 89.121094 96.558594 C 61.164062 129.117188 64.90625 178.3125 97.464844 206.273438 C 130.027344 234.230469 179.21875 230.488281 207.179688 197.929688 C 235.136719 165.367188 231.394531 116.175781 198.835938 88.214844 Z M 176.414062 181.4375 L 148.957031 157.859375 L 125.382812 185.320312 C 122.699219 188.441406 117.925781 188.839844 114.761719 186.125 C 111.601562 183.410156 111.273438 178.632812 113.957031 175.507812 L 137.53125 148.050781 L 110.074219 124.472656 C 106.953125 121.792969 106.554688 117.015625 109.269531 113.855469 C 111.980469 110.695312 116.761719 110.367188 119.886719 113.050781 L 147.34375 136.625 L 170.921875 109.167969 C 173.601562 106.046875 178.375 105.648438 181.539062 108.363281 C 184.699219 111.074219 185.027344 115.855469 182.34375 118.980469 L 158.769531 146.4375 L 186.226562 170.011719 C 189.347656 172.695312 189.746094 177.46875 187.03125 180.632812 C 184.320312 183.792969 179.539062 184.121094 176.414062 181.4375 Z M 176.414062 181.4375 " fill-opacity="1" fill-rule="nonzero"/></g></g></g><g clip-path="url(#94b8b5c06b)"><g clip-path="url(#890cd89ca7)"><g clip-path="url(#9edb05c152)"><path fill="#f83c3c" d="M 197.8125 88.214844 C 165.253906 60.257812 116.058594 63.996094 88.101562 96.558594 C 60.140625 129.117188 63.882812 178.3125 96.441406 206.273438 C 129.003906 234.230469 178.195312 230.488281 206.15625 197.929688 C 234.113281 165.367188 230.375 116.175781 197.8125 88.214844 Z M 175.394531 181.4375 L 147.933594 157.859375 L 124.359375 185.320312 C 121.675781 188.441406 116.902344 188.839844 113.742188 186.125 C 110.578125 183.410156 110.253906 178.632812 112.933594 175.507812 L 136.511719 148.050781 L 109.050781 124.472656 C 105.929688 121.792969 105.53125 117.015625 108.246094 113.855469 C 110.960938 110.695312 115.738281 110.367188 118.863281 113.050781 L 146.320312 136.625 L 169.898438 109.167969 C 172.578125 106.046875 177.355469 105.648438 180.515625 108.363281 C 183.675781 111.074219 184.003906 115.855469 181.320312 118.980469 L 157.746094 146.4375 L 185.203125 170.011719 C 188.324219 172.695312 188.722656 177.46875 186.011719 180.632812 C 183.296875 183.792969 178.515625 184.121094 175.394531 181.4375 Z M 175.394531 181.4375 " fill-opacity="1" fill-rule="nonzero"/></g></g></g></svg>