<svg xmlns="http://www.w3.org/2000/svg" xmlns:xlink="http://www.w3.org/1999/xlink" width="300" zoomAndPan="magnify" viewBox="0 0 224.87999 225.75" height="301" preserveAspectRatio="xMidYMid meet" version="1.0"><defs><clipPath id="6af8e8283a"><path d="M 37.523438 37.609375 L 187.355469 37.609375 L 187.355469 187.441406 L 37.523438 187.441406 Z M 37.523438 37.609375 " clip-rule="nonzero"/></clipPath></defs><g clip-path="url(#6af8e8283a)"><path fill="#00bf63" d="M 112.441406 37.609375 C 71.070312 37.609375 37.523438 71.15625 37.523438 112.527344 C 37.523438 153.894531 71.070312 187.441406 112.441406 187.441406 C 153.808594 187.441406 187.355469 153.894531 187.355469 112.527344 C 187.355469 71.15625 153.808594 37.609375 112.441406 37.609375 Z M 144.699219 93.492188 L 101.8125 136.382812 C 101.179688 137.015625 100.3125 137.386719 99.398438 137.386719 C 98.488281 137.386719 97.621094 137.039062 96.988281 136.382812 L 80.179688 119.574219 C 78.84375 118.238281 78.84375 116.082031 80.179688 114.75 C 81.511719 113.414062 83.667969 113.414062 85 114.75 L 99.421875 129.171875 L 139.902344 88.691406 C 141.234375 87.359375 143.390625 87.359375 144.722656 88.691406 C 146.058594 90.027344 146.058594 92.179688 144.722656 93.515625 Z M 144.699219 93.492188 " fill-opacity="1" fill-rule="nonzero"/><path fill="#00bf63" d="M 112.441406 37.609375 C 71.070312 37.609375 37.523438 71.15625 37.523438 112.527344 C 37.523438 153.894531 71.070312 187.441406 112.441406 187.441406 C 153.808594 187.441406 187.355469 153.894531 187.355469 112.527344 C 187.355469 71.15625 153.808594 37.609375 112.441406 37.609375 Z M 144.699219 93.492188 L 101.8125 136.382812 C 101.179688 137.015625 100.3125 137.386719 99.398438 137.386719 C 98.488281 137.386719 97.621094 137.039062 96.988281 136.382812 L 80.179688 119.574219 C 78.84375 118.238281 78.84375 116.082031 80.179688 114.75 C 81.511719 113.414062 83.667969 113.414062 85 114.75 L 99.421875 129.171875 L 139.902344 88.691406 C 141.234375 87.359375 143.390625 87.359375 144.722656 88.691406 C 146.058594 90.027344 146.058594 92.179688 144.722656 93.515625 Z M 144.699219 93.492188 " fill-opacity="1" fill-rule="nonzero"/></g></svg>