<svg xmlns="http://www.w3.org/2000/svg" xmlns:xlink="http://www.w3.org/1999/xlink" width="260" zoomAndPan="magnify" viewBox="0 0 194.87999 195.000001" height="260" preserveAspectRatio="xMidYMid meet" version="1.0"><defs><clipPath id="72fa9e409b"><path d="M 37.746094 37.308594 L 157.132812 37.308594 L 157.132812 156.695312 L 37.746094 156.695312 Z M 37.746094 37.308594 " clip-rule="nonzero"/></clipPath><clipPath id="a435f9feba"><path d="M 97.441406 37.308594 C 64.472656 37.308594 37.746094 64.035156 37.746094 97.003906 C 37.746094 129.96875 64.472656 156.695312 97.441406 156.695312 C 130.40625 156.695312 157.132812 129.96875 157.132812 97.003906 C 157.132812 64.035156 130.40625 37.308594 97.441406 37.308594 " clip-rule="nonzero"/></clipPath><clipPath id="271475037d"><path d="M 60 64.589844 L 128 64.589844 L 128 94 L 60 94 Z M 60 64.589844 " clip-rule="nonzero"/></clipPath><clipPath id="e37351d01e"><path d="M 57.109375 82 L 137.695312 82 L 137.695312 129.507812 L 57.109375 129.507812 Z M 57.109375 82 " clip-rule="nonzero"/></clipPath><clipPath id="67721ceb2b"><path d="M 57.109375 97 L 137.695312 97 L 137.695312 129.507812 L 57.109375 129.507812 Z M 57.109375 97 " clip-rule="nonzero"/></clipPath><clipPath id="ee42eb0e3d"><path d="M 60 64.589844 L 128 64.589844 L 128 94 L 60 94 Z M 60 64.589844 " clip-rule="nonzero"/></clipPath><clipPath id="5b1f68aed7"><path d="M 89 104 L 137.695312 104 L 137.695312 122 L 89 122 Z M 89 104 " clip-rule="nonzero"/></clipPath></defs><g clip-path="url(#72fa9e409b)"><g clip-path="url(#a435f9feba)"><path fill="#f5bb3d" d="M 37.746094 37.308594 L 157.132812 37.308594 L 157.132812 156.695312 L 37.746094 156.695312 Z M 37.746094 37.308594 " fill-opacity="1" fill-rule="nonzero"/></g></g><g clip-path="url(#271475037d)"><path fill="#303033" d="M 61.484375 85.296875 C 61.6875 85.46875 62 85.527344 62.269531 85.609375 C 63.578125 86.007812 64.886719 86.398438 66.195312 86.789062 C 68.460938 87.273438 70.714844 87.808594 72.992188 88.234375 C 80.417969 89.617188 87.851562 90.964844 95.285156 92.316406 C 96.890625 92.605469 98.496094 92.964844 100.113281 93.085938 C 101.046875 93.160156 102.097656 93.019531 102.949219 92.644531 C 107.707031 90.550781 112.429688 88.386719 117.136719 86.1875 C 119.660156 85.003906 122.125 83.703125 124.703125 82.386719 C 126.960938 80.859375 127.648438 78.679688 127.65625 76.21875 C 127.664062 74.335938 126.789062 73.253906 125.105469 72.855469 C 124.9375 73.101562 124.824219 73.488281 124.59375 73.574219 C 124.582031 73.578125 124.566406 73.585938 124.550781 73.589844 C 124.566406 73.585938 124.582031 73.578125 124.59375 73.574219 C 124.824219 73.488281 124.9375 73.101562 125.074219 72.832031 C 124.960938 72.785156 124.882812 72.761719 124.730469 72.75 C 123.507812 73.164062 122.347656 73.535156 121.214844 73.980469 C 122.347656 73.535156 123.507812 73.164062 124.6875 72.703125 C 121.757812 71.753906 118.824219 70.75 115.832031 69.996094 C 108.914062 68.257812 101.960938 66.667969 95.042969 64.949219 C 93.710938 64.617188 92.433594 64.589844 91.144531 64.925781 C 85.542969 66.386719 79.929688 67.808594 74.359375 69.371094 C 70.691406 70.402344 67.082031 71.640625 63.449219 72.789062 C 62.917969 72.953125 62.414062 73.144531 62.851562 73.855469 C 63.339844 73.898438 63.847656 73.886719 64.332031 73.941406 C 63.84375 73.886719 63.335938 73.914062 62.839844 73.917969 C 62.875 74.882812 63.753906 74.261719 64.136719 74.664062 C 64.351562 74.675781 64.5 74.664062 64.636719 74.699219 C 67.605469 75.472656 70.5625 76.285156 73.539062 77.027344 C 78.636719 78.296875 83.742188 79.523438 88.847656 80.769531 C 92.117188 81.5625 95.398438 82.324219 98.65625 83.175781 C 101 83.785156 102.289062 85.515625 102.273438 87.777344 C 102.289062 85.515625 100.996094 83.789062 98.65625 83.175781 C 95.398438 82.328125 92.117188 81.570312 88.847656 80.769531 C 83.742188 79.527344 78.636719 78.300781 73.539062 77.03125 C 70.5625 76.289062 67.605469 75.476562 64.636719 74.699219 C 64.5 74.664062 64.351562 74.679688 64.136719 74.734375 C 64.398438 76.328125 64.902344 77.835938 65.023438 79.375 C 65.144531 80.945312 64.878906 82.535156 63.335938 83.515625 C 63.03125 83.710938 62.777344 83.988281 62.546875 84.277344 C 62.976562 84.398438 63.386719 84.507812 63.789062 84.59375 C 63.382812 84.507812 62.957031 84.394531 62.472656 84.277344 C 62.152344 84.214844 61.941406 84.144531 61.761719 84.191406 C 61.488281 84.261719 61.238281 84.414062 60.976562 84.53125 C 61.140625 84.789062 61.261719 85.105469 61.484375 85.296875 Z M 111.546875 78.453125 C 111.222656 78.570312 110.84375 78.535156 110.488281 78.570312 C 110.84375 78.535156 111.222656 78.570312 111.546875 78.453125 C 111.59375 78.433594 111.640625 78.417969 111.6875 78.402344 C 111.640625 78.417969 111.59375 78.433594 111.546875 78.453125 Z M 75.742188 80.839844 C 76.9375 81.164062 78.152344 81.433594 79.34375 81.769531 C 81.433594 82.359375 83.507812 83 85.601562 83.585938 C 86.890625 83.945312 88.195312 84.246094 89.542969 84.609375 C 90.585938 84.949219 91.59375 85.210938 92.570312 85.566406 C 93.40625 85.871094 94.308594 85.757812 95.136719 86.355469 C 95.886719 86.894531 96.96875 86.992188 97.914062 87.230469 C 97.941406 87.238281 97.972656 87.242188 98 87.246094 C 97.972656 87.242188 97.941406 87.238281 97.914062 87.230469 C 96.964844 86.992188 95.882812 86.894531 95.132812 86.355469 C 94.308594 85.757812 93.40625 85.871094 92.570312 85.566406 C 91.59375 85.214844 90.585938 84.949219 89.59375 84.644531 C 88.195312 84.246094 86.890625 83.945312 85.597656 83.585938 C 83.507812 83 81.433594 82.359375 79.34375 81.769531 C 78.148438 81.433594 76.9375 81.164062 75.742188 80.839844 C 75.519531 80.777344 75.339844 80.585938 75.136719 80.449219 C 75.34375 80.414062 75.5625 80.320312 75.757812 80.347656 C 75.5625 80.324219 75.34375 80.414062 75.140625 80.449219 C 75.339844 80.582031 75.523438 80.777344 75.742188 80.839844 Z M 76.589844 80.496094 C 77.210938 80.609375 77.828125 80.730469 78.441406 80.878906 C 77.828125 80.730469 77.210938 80.609375 76.589844 80.496094 Z M 87.078125 84.921875 C 86.859375 84.796875 86.644531 84.664062 86.414062 84.558594 C 86.265625 84.492188 86.089844 84.464844 85.929688 84.429688 C 85.011719 84.230469 84.09375 84.027344 83.171875 83.851562 C 83.082031 83.832031 82.96875 83.957031 82.863281 84.019531 C 82.964844 83.960938 83.082031 83.832031 83.171875 83.847656 C 84.09375 84.027344 85.011719 84.230469 85.929688 84.429688 C 86.09375 84.464844 86.265625 84.488281 86.414062 84.558594 C 86.644531 84.660156 86.859375 84.796875 87.082031 84.921875 C 87.082031 84.921875 87.082031 84.921875 87.078125 84.921875 Z M 86.929688 84.925781 C 86.742188 84.933594 86.554688 84.941406 86.367188 84.949219 C 85.515625 84.710938 84.691406 84.53125 83.875 84.363281 C 84.6875 84.53125 85.507812 84.699219 86.339844 84.894531 C 86.546875 84.929688 86.742188 84.933594 86.929688 84.925781 Z M 81.871094 83.503906 C 81.730469 83.453125 81.589844 83.394531 81.445312 83.351562 C 81.023438 83.230469 80.609375 83.066406 80.183594 83.007812 C 79.835938 82.960938 79.476562 83.042969 79.121094 83.066406 C 79.476562 83.042969 79.835938 82.960938 80.183594 83.007812 C 80.609375 83.066406 81.023438 83.226562 81.445312 83.347656 C 81.589844 83.390625 81.730469 83.449219 81.871094 83.503906 Z M 80.875 83.675781 C 80.585938 83.617188 80.296875 83.542969 80.003906 83.484375 C 79.984375 83.472656 79.964844 83.464844 79.945312 83.453125 C 80.277344 83.535156 80.578125 83.617188 80.875 83.675781 Z M 101.519531 90.886719 C 101.835938 90.726562 101.980469 90.230469 102.199219 89.882812 C 102.195312 89.558594 102.140625 89.226562 102.167969 88.910156 C 102.144531 89.230469 102.203125 89.558594 102.261719 89.875 C 102.386719 89.777344 102.476562 89.699219 102.519531 89.601562 C 103.652344 87.230469 102.371094 84.210938 100.089844 83 C 102.375 84.207031 103.660156 87.230469 102.523438 89.605469 C 102.480469 89.699219 102.390625 89.777344 102.261719 89.875 C 101.980469 90.230469 101.835938 90.722656 101.523438 90.886719 C 101.167969 91.070312 100.773438 91.273438 100.382812 91.402344 C 100.773438 91.273438 101.167969 91.070312 101.519531 90.886719 Z M 97.371094 84.542969 C 97.292969 84.511719 97.214844 84.480469 97.132812 84.449219 C 97.214844 84.480469 97.292969 84.511719 97.371094 84.542969 Z M 96.921875 84.367188 C 96.835938 84.335938 96.75 84.304688 96.660156 84.273438 C 96.75 84.304688 96.835938 84.335938 96.921875 84.367188 Z M 95.503906 83.875 C 94.714844 83.667969 93.972656 83.476562 93.234375 83.277344 C 93.984375 83.476562 94.730469 83.671875 95.476562 83.867188 C 95.488281 83.871094 95.496094 83.875 95.503906 83.875 Z M 73.222656 78.355469 C 73.300781 78.457031 73.355469 78.589844 73.457031 78.648438 C 73.601562 78.734375 73.777344 78.761719 73.9375 78.824219 C 75.367188 79.375 76.941406 79.347656 78.363281 79.960938 C 78.898438 80.191406 79.511719 80.21875 80.074219 80.382812 C 81.988281 80.949219 83.886719 81.546875 85.800781 82.109375 C 89.171875 83.101562 92.546875 84.070312 95.921875 85.054688 C 96.375 85.1875 96.808594 85.425781 97.269531 85.496094 C 97.464844 85.527344 97.710938 85.265625 97.933594 85.132812 C 97.710938 85.265625 97.464844 85.527344 97.269531 85.5 C 96.804688 85.425781 96.375 85.1875 95.917969 85.054688 C 92.546875 84.070312 89.167969 83.101562 85.796875 82.113281 C 83.886719 81.550781 81.984375 80.949219 80.074219 80.386719 C 79.511719 80.21875 78.894531 80.191406 78.363281 79.960938 C 76.9375 79.347656 75.367188 79.375 73.933594 78.828125 C 73.777344 78.765625 73.597656 78.738281 73.457031 78.652344 C 73.355469 78.589844 73.296875 78.457031 73.21875 78.355469 C 73.21875 78.355469 73.222656 78.355469 73.222656 78.355469 Z M 73.378906 81.863281 C 73.203125 81.882812 73.023438 81.945312 72.855469 81.917969 C 71.457031 81.691406 70.058594 81.464844 68.667969 81.207031 C 68.492188 81.171875 68.347656 80.960938 68.1875 80.832031 C 68.1875 80.785156 68.1875 80.757812 68.1875 80.734375 C 69.789062 80.960938 71.371094 81.183594 72.945312 81.4375 C 73.109375 81.464844 73.234375 81.71875 73.378906 81.863281 Z M 72.890625 79.753906 C 72.804688 79.78125 72.710938 79.84375 72.632812 79.828125 C 71.640625 79.644531 70.648438 79.457031 69.65625 79.261719 C 69.59375 79.25 69.539062 79.179688 69.480469 79.136719 C 69.558594 79.09375 69.640625 79.003906 69.71875 79.011719 C 70.015625 79.039062 70.3125 79.097656 70.613281 79.148438 C 71.402344 79.316406 72.054688 79.449219 72.707031 79.597656 C 72.777344 79.613281 72.828125 79.699219 72.890625 79.753906 Z M 68.886719 77.125 C 69.753906 77.308594 70.609375 77.554688 71.46875 77.785156 C 71.582031 77.816406 71.6875 77.886719 71.796875 77.941406 C 71.671875 78.035156 71.554688 78.167969 71.410156 78.210938 C 71.300781 78.242188 71.15625 78.15625 71.027344 78.117188 C 70.101562 77.84375 69.175781 77.566406 68.25 77.292969 C 68.386719 77.21875 68.660156 77.074219 68.886719 77.125 Z M 64.203125 84.671875 C 64.136719 84.664062 64.070312 84.652344 64.003906 84.636719 C 64.070312 84.652344 64.136719 84.664062 64.203125 84.671875 Z M 64.203125 84.671875 " fill-opacity="1" fill-rule="nonzero"/></g><path fill="#303033" d="M 62.566406 98.515625 C 62.722656 98.597656 62.828125 98.652344 62.9375 98.679688 C 70.363281 100.410156 77.785156 102.136719 85.210938 103.867188 C 89.839844 104.945312 94.46875 106.027344 99.097656 107.109375 C 100.164062 107.363281 101.300781 106.640625 101.621094 105.550781 C 102.089844 103.933594 101.808594 102.371094 101.359375 100.8125 C 100.714844 98.378906 98.722656 98.035156 96.652344 97.664062 C 91.804688 96.785156 86.964844 95.84375 82.136719 94.863281 C 77.335938 93.882812 72.550781 92.835938 67.765625 91.78125 C 65.929688 91.378906 64.113281 90.875 62.230469 90.480469 C 62.339844 90.90625 62.515625 91.269531 62.6875 91.636719 C 62.988281 91.722656 63.292969 91.828125 63.597656 91.90625 C 63.289062 91.828125 62.980469 91.730469 62.640625 91.667969 C 62.445312 92.128906 62.542969 92.414062 63.097656 92.472656 C 64.53125 92.703125 65.894531 92.933594 67.253906 93.1875 C 69.949219 93.695312 72.648438 94.195312 75.335938 94.734375 C 77.042969 95.074219 78.738281 95.488281 80.441406 95.855469 C 81.761719 96.136719 83.089844 96.398438 84.417969 96.660156 C 84.441406 96.664062 84.46875 96.664062 84.496094 96.664062 C 84.46875 96.667969 84.441406 96.664062 84.414062 96.660156 C 83.085938 96.398438 81.757812 96.136719 80.4375 95.855469 C 78.734375 95.488281 77.039062 95.074219 75.332031 94.734375 C 72.644531 94.195312 69.945312 93.695312 67.25 93.1875 C 65.890625 92.933594 64.527344 92.703125 63.097656 92.546875 C 63.050781 92.796875 63.082031 92.964844 63.097656 93.132812 C 63.242188 94.523438 63.703125 95.921875 63.042969 97.363281 C 62.871094 97.777344 62.691406 98.128906 62.566406 98.515625 Z M 95.898438 99.332031 C 95.800781 99.257812 95.710938 99.152344 95.601562 99.117188 C 95.5 99.082031 95.398438 99.050781 95.296875 99.019531 C 95.398438 99.050781 95.5 99.082031 95.601562 99.117188 C 95.710938 99.152344 95.800781 99.257812 95.898438 99.332031 Z M 86.253906 96.652344 C 88.425781 97.226562 90.585938 97.839844 92.753906 98.421875 C 92.953125 98.476562 93.1875 98.402344 93.40625 98.390625 C 93.898438 98.566406 94.355469 98.714844 94.792969 98.855469 C 94.359375 98.71875 93.917969 98.578125 93.457031 98.425781 C 93.1875 98.402344 92.953125 98.476562 92.753906 98.421875 C 90.585938 97.839844 88.425781 97.226562 86.253906 96.652344 C 86.042969 96.597656 85.78125 96.734375 85.542969 96.785156 C 85.78125 96.734375 86.042969 96.597656 86.253906 96.652344 Z M 84.527344 97.648438 C 84.359375 97.617188 84.191406 97.582031 84.027344 97.539062 C 84.195312 97.582031 84.359375 97.617188 84.527344 97.644531 C 84.730469 97.683594 84.949219 97.621094 85.160156 97.601562 C 85.164062 97.601562 85.164062 97.601562 85.164062 97.601562 C 84.949219 97.621094 84.730469 97.683594 84.527344 97.648438 Z M 77.792969 94.984375 C 77.90625 94.980469 78.019531 94.980469 78.128906 94.980469 C 78.019531 94.980469 77.90625 94.980469 77.792969 94.984375 Z M 79.585938 96.257812 C 79.6875 96.382812 79.777344 96.582031 79.902344 96.613281 C 80.621094 96.785156 81.347656 96.941406 82.09375 97.101562 C 81.332031 96.941406 80.617188 96.785156 79.902344 96.613281 C 79.777344 96.582031 79.691406 96.382812 79.585938 96.257812 Z M 79.585938 96.257812 " fill-opacity="1" fill-rule="nonzero"/><g clip-path="url(#e37351d01e)"><path fill="#303033" d="M 137.304688 104.246094 C 135.640625 104.574219 134.046875 104.882812 132.46875 105.269531 C 120.3125 108.238281 108.164062 111.222656 96.011719 114.203125 C 94.707031 114.523438 93.410156 114.878906 92.101562 115.164062 C 91.671875 115.253906 91.203125 115.160156 90.84375 115.4375 C 91.207031 115.160156 91.671875 115.253906 92.101562 115.160156 C 93.414062 114.875 94.710938 114.523438 96.011719 114.203125 C 108.164062 111.21875 120.316406 108.234375 132.46875 105.265625 C 134.046875 104.882812 135.644531 104.570312 137.304688 104.179688 C 137.074219 103.851562 136.808594 103.496094 136.457031 103.308594 C 135.929688 103.03125 135.34375 102.871094 134.777344 102.671875 C 130.128906 101.003906 125.480469 99.34375 120.832031 97.679688 C 119.242188 98.585938 117.644531 99.476562 116.050781 100.375 C 117.652344 99.46875 119.265625 98.566406 120.882812 97.640625 C 122.976562 96.605469 125.011719 95.613281 127.050781 94.621094 C 128.636719 93.847656 129.652344 92.535156 129.902344 90.847656 C 130.113281 89.421875 130.078125 87.914062 129.855469 86.488281 C 129.632812 85.082031 128.90625 83.765625 127.539062 83.128906 C 126.675781 82.726562 125.667969 82.644531 124.667969 82.4375 C 122.125 83.707031 119.660156 85.007812 117.136719 86.1875 C 112.429688 88.390625 107.707031 90.550781 102.949219 92.644531 C 102.097656 93.019531 101.046875 93.160156 100.113281 93.089844 C 98.496094 92.964844 96.890625 92.609375 95.285156 92.316406 C 87.851562 90.964844 80.417969 89.617188 72.992188 88.234375 C 70.714844 87.808594 68.460938 87.273438 66.140625 86.832031 C 64.613281 87.175781 63.125 87.429688 61.667969 87.808594 C 61.265625 87.914062 60.960938 88.390625 60.613281 88.695312 C 60.664062 88.691406 60.722656 88.671875 60.773438 88.664062 C 60.71875 88.679688 60.660156 88.710938 60.601562 88.757812 C 60.515625 89.9375 61.542969 89.976562 62.222656 90.417969 C 64.117188 90.871094 65.933594 91.375 67.769531 91.78125 C 72.554688 92.832031 77.339844 93.882812 82.140625 94.859375 C 86.96875 95.84375 91.808594 96.78125 96.65625 97.660156 C 98.722656 98.035156 100.710938 98.378906 101.429688 100.792969 C 101.476562 100.628906 101.507812 100.472656 101.5 100.324219 C 101.511719 100.472656 101.476562 100.632812 101.429688 100.796875 C 101.808594 102.375 102.09375 103.9375 101.621094 105.554688 C 101.300781 106.644531 100.167969 107.367188 99.101562 107.117188 C 94.46875 106.03125 89.839844 104.949219 85.210938 103.871094 C 77.789062 102.140625 70.363281 100.414062 62.9375 98.683594 C 62.828125 98.65625 62.726562 98.605469 62.492188 98.519531 C 62.277344 98.476562 62.171875 98.4375 62.109375 98.472656 C 61.75 98.675781 61.164062 98.835938 61.09375 99.121094 C 61.078125 99.1875 61.070312 99.25 61.074219 99.304688 C 61.070312 99.25 61.078125 99.1875 61.09375 99.117188 C 61.164062 98.832031 61.75 98.671875 62.109375 98.46875 C 62.171875 98.433594 62.277344 98.46875 62.4375 98.476562 C 62.691406 98.128906 62.871094 97.78125 62.976562 97.378906 C 62.09375 97.609375 61.296875 97.945312 60.46875 98.164062 C 58.796875 98.605469 57.828125 99.777344 57.597656 101.363281 C 57.308594 103.339844 57.285156 105.355469 57.207031 107.359375 C 57.144531 108.949219 58.03125 110.058594 59.253906 110.917969 C 62.683594 113.328125 66.070312 115.800781 69.574219 118.097656 C 75.121094 121.734375 80.644531 125.414062 86.683594 128.210938 C 88.097656 128.867188 89.539062 129.507812 91.136719 129.269531 C 92.660156 129.042969 94.191406 128.761719 95.675781 128.351562 C 104.542969 125.902344 113.40625 123.433594 122.253906 120.910156 C 126.738281 119.632812 131.1875 118.226562 135.640625 116.84375 C 135.949219 116.746094 136.164062 116.339844 136.421875 116.078125 C 136.097656 115.933594 135.769531 115.789062 135.445312 115.640625 C 129.617188 117.210938 123.785156 118.773438 117.960938 120.351562 C 123.785156 118.773438 129.613281 117.199219 135.425781 115.585938 C 133.804688 114.101562 133.539062 112.230469 133.761719 110.253906 C 133.859375 109.382812 134.160156 108.523438 134.472656 107.695312 C 134.757812 106.9375 135.179688 106.234375 135.542969 105.507812 C 135.546875 105.507812 135.546875 105.507812 135.550781 105.507812 C 135.5625 105.503906 135.582031 105.507812 135.582031 105.507812 C 135.621094 105.46875 135.667969 105.453125 135.820312 105.445312 C 136.304688 105.324219 136.691406 105.230469 137.066406 105.105469 C 137.507812 104.960938 137.660156 104.6875 137.304688 104.246094 Z M 117.167969 115.410156 C 117.164062 115.414062 117.160156 115.421875 117.152344 115.425781 C 117.160156 115.421875 117.164062 115.414062 117.167969 115.410156 Z M 109.265625 116.332031 C 109.246094 116.328125 109.234375 116.328125 109.21875 116.324219 C 111.636719 115.644531 113.976562 114.9375 116.335938 114.296875 C 113.96875 114.941406 111.621094 115.648438 109.265625 116.332031 Z M 115.09375 115.792969 C 114.554688 115.929688 114.011719 116.066406 113.457031 116.207031 C 113.441406 116.210938 113.429688 116.214844 113.414062 116.214844 C 113.996094 116.070312 114.550781 115.929688 115.09375 115.792969 Z M 112.421875 116.558594 C 112.628906 116.574219 112.847656 116.644531 113.039062 116.59375 C 114.351562 116.269531 115.65625 115.917969 116.960938 115.566406 C 116.988281 115.5625 117.007812 115.546875 117.03125 115.53125 C 117.007812 115.546875 116.984375 115.5625 116.960938 115.570312 C 115.65625 115.917969 114.351562 116.269531 113.039062 116.597656 C 112.847656 116.644531 112.625 116.574219 112.417969 116.5625 C 112.417969 116.5625 112.417969 116.558594 112.421875 116.558594 Z M 115.347656 112.675781 C 115.429688 112.691406 115.523438 112.734375 115.59375 112.710938 C 115.902344 112.609375 116.199219 112.449219 116.515625 112.382812 C 117.390625 112.1875 118.28125 112.066406 119.148438 111.851562 C 120.039062 111.632812 120.929688 111.402344 121.824219 111.171875 C 120.925781 111.40625 120.035156 111.632812 119.148438 111.851562 C 118.28125 112.066406 117.390625 112.191406 116.515625 112.382812 C 116.199219 112.453125 115.902344 112.613281 115.59375 112.714844 C 115.523438 112.738281 115.429688 112.691406 115.34375 112.679688 C 115.347656 112.679688 115.347656 112.679688 115.347656 112.675781 Z M 109.023438 115.878906 C 110.292969 115.515625 111.5625 115.15625 112.832031 114.796875 C 111.5625 115.15625 110.292969 115.515625 109.023438 115.878906 Z M 108.667969 116.1875 C 108.625 116.175781 108.582031 116.164062 108.539062 116.148438 C 108.542969 116.148438 108.542969 116.148438 108.542969 116.148438 C 108.542969 116.148438 108.542969 116.148438 108.539062 116.148438 C 108.582031 116.164062 108.625 116.175781 108.667969 116.1875 Z M 114.199219 89.589844 C 117.253906 87.921875 120.308594 86.238281 123.398438 84.546875 C 123.730469 84.359375 124.039062 84.199219 124.332031 84.027344 C 124.042969 84.199219 123.746094 84.355469 123.457031 84.523438 C 120.324219 86.230469 117.257812 87.921875 114.199219 89.589844 Z M 111.714844 90.945312 C 112.472656 90.535156 113.226562 90.125 113.980469 89.710938 C 113.226562 90.125 112.472656 90.535156 111.714844 90.945312 Z M 110.691406 90.816406 C 115.265625 88.289062 119.847656 85.773438 124.441406 83.277344 C 124.800781 83.082031 125.246094 83.046875 125.652344 82.9375 C 125.652344 82.9375 125.648438 82.9375 125.648438 82.9375 C 125.246094 83.046875 124.800781 83.082031 124.441406 83.277344 C 119.847656 85.773438 115.265625 88.289062 110.691406 90.816406 C 110.355469 91 110.089844 91.316406 109.792969 91.574219 C 109.792969 91.574219 109.792969 91.574219 109.789062 91.574219 C 110.089844 91.316406 110.355469 91 110.691406 90.816406 Z M 75.644531 108.566406 C 74.226562 107.8125 72.792969 107.089844 71.429688 106.246094 C 68.824219 104.628906 66.265625 102.945312 63.699219 101.269531 C 63.425781 101.09375 62.847656 100.917969 63.457031 100.398438 C 63.257812 100.324219 63.042969 100.242188 62.828125 100.167969 C 63.058594 100.242188 63.285156 100.324219 63.519531 100.394531 C 63.660156 100.464844 63.804688 100.53125 64.078125 100.597656 C 64.222656 100.605469 64.335938 100.609375 64.4375 100.613281 C 64.347656 100.609375 64.25 100.609375 64.136719 100.609375 C 67.351562 103.074219 70.75 105.351562 74.433594 107.171875 C 74.96875 107.433594 75.472656 107.769531 75.96875 108.105469 C 76.105469 108.203125 76.160156 108.429688 76.25 108.59375 C 76.046875 108.585938 75.804688 108.652344 75.644531 108.566406 Z M 89.726562 117.277344 C 89.1875 118.429688 88.898438 119.648438 89.191406 121.011719 C 89.3125 120.878906 89.378906 120.761719 89.421875 120.636719 C 89.832031 119.4375 90.15625 118.195312 90.679688 117.046875 C 90.734375 116.929688 90.8125 116.816406 90.90625 116.703125 C 90.8125 116.816406 90.734375 116.929688 90.683594 117.046875 C 90.15625 118.195312 89.832031 119.433594 89.425781 120.636719 C 89.382812 120.761719 89.3125 120.875 89.1875 121.082031 C 89.152344 121.609375 89.167969 122.054688 89.207031 122.496094 C 89.167969 122.054688 89.148438 121.605469 89.125 121.097656 C 88.878906 119.671875 89.179688 118.4375 89.726562 117.277344 Z M 122.46875 112.742188 C 123.113281 112.53125 123.753906 112.296875 124.40625 112.125 C 123.75 112.300781 123.113281 112.53125 122.46875 112.742188 Z M 131.15625 108.695312 C 130.578125 108.855469 130 109.007812 129.421875 109.160156 C 130.003906 109.007812 130.578125 108.851562 131.15625 108.695312 C 131.3125 108.652344 131.417969 108.425781 131.546875 108.28125 C 131.546875 108.28125 131.550781 108.28125 131.550781 108.28125 C 131.417969 108.425781 131.3125 108.652344 131.15625 108.695312 Z M 131.15625 108.695312 " fill-opacity="1" fill-rule="nonzero"/></g><path fill="#303033" d="M 135.617188 105.535156 C 135.699219 105.535156 135.746094 105.507812 135.757812 105.46875 C 135.667969 105.453125 135.621094 105.46875 135.617188 105.535156 Z M 135.617188 105.535156 " fill-opacity="1" fill-rule="nonzero"/><path fill="#2e59a7" d="M 87.5 113.835938 C 87.730469 113.949219 87.953125 114.117188 88.195312 114.160156 C 88.511719 114.21875 88.84375 114.175781 89.167969 114.179688 C 88.9375 113.964844 88.742188 113.664062 88.46875 113.550781 C 86.597656 112.773438 84.710938 112.023438 82.820312 111.292969 C 82.59375 111.207031 82.308594 111.273438 82.050781 111.265625 C 82.246094 111.449219 82.40625 111.707031 82.636719 111.804688 C 84.210938 112.476562 85.800781 113.117188 87.5 113.835938 Z M 87.5 113.835938 " fill-opacity="1" fill-rule="nonzero"/><g clip-path="url(#67721ceb2b)"><path fill="#f45830" d="M 113.136719 121.660156 C 106.007812 123.605469 98.882812 125.582031 91.769531 127.582031 C 91.140625 127.757812 90.847656 127.519531 90.5625 127.101562 C 89.628906 125.726562 89.351562 124.148438 89.207031 122.53125 C 89.167969 122.078125 89.152344 121.621094 89.125 121.097656 C 88.765625 119.007812 89.578125 117.328125 90.609375 115.699219 C 90.988281 115.105469 91.574219 115.273438 92.101562 115.160156 C 93.414062 114.875 94.710938 114.523438 96.011719 114.203125 C 108.164062 111.21875 120.316406 108.234375 132.46875 105.265625 C 134.046875 104.882812 135.644531 104.570312 137.304688 104.179688 C 137.074219 103.851562 136.808594 103.496094 136.457031 103.308594 C 135.929688 103.03125 135.34375 102.871094 134.777344 102.671875 C 130.128906 101.003906 125.480469 99.34375 120.832031 97.679688 L 63.402344 97.328125 C 63.257812 97.230469 63.070312 97.238281 62.914062 97.324219 C 62.675781 97.460938 62.425781 97.535156 62.15625 97.625 C 61.597656 97.808594 61.042969 98.015625 60.46875 98.164062 C 58.796875 98.605469 57.828125 99.777344 57.597656 101.363281 C 57.308594 103.339844 57.285156 105.355469 57.207031 107.359375 C 57.144531 108.949219 58.03125 110.058594 59.253906 110.917969 C 62.683594 113.328125 66.070312 115.800781 69.574219 118.097656 C 75.121094 121.734375 80.644531 125.414062 86.683594 128.210938 C 88.097656 128.867188 89.539062 129.507812 91.136719 129.269531 C 92.660156 129.042969 94.191406 128.761719 95.675781 128.351562 C 104.542969 125.902344 113.40625 123.433594 122.253906 120.910156 C 126.738281 119.632812 131.1875 118.226562 135.640625 116.84375 C 135.949219 116.746094 136.164062 116.339844 136.421875 116.078125 C 136.097656 115.933594 135.769531 115.789062 135.445312 115.640625 C 128.011719 117.644531 120.566406 119.636719 113.136719 121.660156 Z M 113.136719 121.660156 " fill-opacity="1" fill-rule="nonzero"/></g><path fill="#fcac3d" d="M 129.855469 86.488281 C 129.632812 85.082031 128.90625 83.765625 127.539062 83.128906 C 126.675781 82.726562 125.667969 82.644531 124.667969 82.4375 L 82.890625 80.339844 L 66.140625 86.832031 C 64.613281 87.175781 63.125 87.429688 61.667969 87.808594 C 61.265625 87.914062 60.960938 88.390625 60.613281 88.695312 C 60.699219 88.683594 60.8125 88.632812 60.867188 88.671875 C 63 90.222656 65.597656 90.460938 68.03125 91.019531 C 75.832031 92.808594 83.667969 94.433594 91.5 96.070312 C 93.785156 96.550781 96.09375 96.980469 98.414062 97.242188 C 100.285156 97.449219 101.066406 98.566406 101.480469 100.179688 C 101.53125 100.367188 101.496094 100.578125 101.429688 100.796875 C 101.808594 102.375 102.09375 103.9375 101.621094 105.554688 C 101.300781 106.644531 100.167969 107.367188 99.101562 107.117188 C 94.46875 106.03125 89.839844 104.949219 85.210938 103.871094 C 77.789062 102.140625 70.363281 100.414062 62.9375 98.683594 C 62.828125 98.65625 62.726562 98.605469 62.492188 98.519531 C 62.277344 98.476562 62.171875 98.4375 62.109375 98.472656 C 61.75 98.675781 61.164062 98.835938 61.09375 99.121094 C 60.957031 99.667969 61.488281 99.820312 61.976562 99.921875 C 62.5 100.035156 63.003906 100.234375 63.519531 100.394531 C 63.660156 100.464844 63.804688 100.53125 64.078125 100.597656 C 64.378906 100.613281 64.554688 100.609375 64.71875 100.648438 C 67.765625 101.351562 70.804688 102.074219 73.855469 102.769531 C 82.554688 104.75 91.261719 106.695312 99.953125 108.71875 C 101.550781 109.089844 102.832031 108.773438 104.140625 107.847656 C 106.394531 106.253906 108.679688 104.703125 111.042969 103.285156 C 114.261719 101.34375 117.5625 99.542969 120.882812 97.640625 C 122.976562 96.605469 125.011719 95.613281 127.050781 94.621094 C 128.636719 93.847656 129.652344 92.535156 129.902344 90.847656 C 130.113281 89.421875 130.078125 87.914062 129.855469 86.488281 Z M 129.855469 86.488281 " fill-opacity="1" fill-rule="nonzero"/><g clip-path="url(#ee42eb0e3d)"><path fill="#2e59a7" d="M 127.65625 76.21875 C 127.648438 78.679688 126.960938 80.859375 124.703125 82.386719 C 122.125 83.703125 119.660156 85.003906 117.136719 86.1875 C 112.429688 88.386719 107.707031 90.550781 102.949219 92.644531 C 102.097656 93.019531 101.046875 93.160156 100.113281 93.085938 C 98.496094 92.964844 96.890625 92.605469 95.285156 92.316406 C 87.851562 90.964844 80.417969 89.617188 72.992188 88.234375 C 70.714844 87.808594 68.460938 87.273438 66.195312 86.789062 C 64.886719 86.398438 63.578125 86.007812 62.269531 85.609375 C 62 85.527344 61.6875 85.46875 61.484375 85.296875 C 61.261719 85.105469 61.140625 84.789062 60.976562 84.53125 C 61.238281 84.414062 61.488281 84.261719 61.761719 84.191406 C 61.941406 84.144531 62.152344 84.214844 62.472656 84.277344 C 63.175781 84.449219 63.75 84.609375 64.339844 84.695312 C 66.203125 84.96875 68.089844 85.125 69.933594 85.488281 C 78.128906 87.101562 86.3125 88.765625 94.496094 90.433594 C 96.167969 90.773438 97.8125 91.285156 99.496094 91.519531 C 100.140625 91.605469 100.894531 91.210938 101.523438 90.886719 C 101.835938 90.722656 101.980469 90.230469 102.261719 89.875 C 102.390625 89.777344 102.480469 89.699219 102.523438 89.605469 C 103.820312 86.894531 101.960938 83.335938 99.0625 82.601562 C 95.777344 81.773438 92.496094 80.929688 89.191406 80.195312 C 81.042969 78.382812 72.941406 76.40625 64.929688 74.054688 C 64.273438 73.859375 63.542969 73.917969 62.851562 73.855469 C 62.414062 73.144531 62.917969 72.953125 63.449219 72.789062 C 67.082031 71.640625 70.691406 70.402344 74.359375 69.371094 C 79.929688 67.808594 85.542969 66.386719 91.144531 64.925781 C 92.433594 64.589844 93.710938 64.617188 95.042969 64.949219 C 101.960938 66.667969 108.914062 68.257812 115.832031 69.996094 C 118.824219 70.75 121.757812 71.753906 124.6875 72.703125 L 125.074219 72.902344 C 125.085938 72.886719 125.097656 72.871094 125.105469 72.855469 C 126.789062 73.253906 127.664062 74.335938 127.65625 76.21875 Z M 127.65625 76.21875 " fill-opacity="1" fill-rule="nonzero"/></g><path fill="#fcac3d" d="M 123.457031 84.523438 C 123.878906 84.277344 124.316406 84.0625 124.710938 83.78125 C 125.050781 83.539062 125.339844 83.222656 125.652344 82.9375 C 125.246094 83.046875 124.800781 83.082031 124.441406 83.277344 C 119.847656 85.773438 115.265625 88.289062 110.691406 90.816406 C 110.355469 91 110.089844 91.316406 109.789062 91.574219 C 110.203125 91.496094 110.664062 91.515625 111.015625 91.324219 C 115.136719 89.089844 119.238281 86.824219 123.457031 84.523438 Z M 123.457031 84.523438 " fill-opacity="1" fill-rule="nonzero"/><path fill="#e5e1d7" d="M 135.425781 115.585938 C 128.011719 117.644531 120.566406 119.636719 113.136719 121.664062 C 106.007812 123.609375 98.882812 125.582031 91.769531 127.585938 C 91.140625 127.761719 90.847656 127.519531 90.5625 127.105469 C 89.625 125.726562 89.351562 124.148438 89.207031 122.535156 C 89.167969 122.082031 89.152344 121.625 89.1875 121.082031 C 89.3125 120.875 89.382812 120.761719 89.425781 120.636719 C 89.832031 119.433594 90.15625 118.195312 90.683594 117.046875 C 90.894531 116.582031 91.488281 116.117188 91.996094 115.992188 C 96.691406 114.820312 101.40625 113.726562 106.113281 112.59375 C 115.921875 110.238281 125.734375 107.871094 135.542969 105.507812 C 135.179688 106.234375 134.757812 106.9375 134.472656 107.695312 C 134.160156 108.523438 133.859375 109.382812 133.761719 110.253906 C 133.539062 112.230469 133.804688 114.101562 135.425781 115.585938 Z M 109.261719 116.332031 C 111.621094 115.648438 113.96875 114.941406 116.335938 114.296875 C 118.0625 113.828125 119.816406 113.472656 121.542969 113.019531 C 122.507812 112.765625 123.4375 112.382812 124.40625 112.125 C 125.390625 111.871094 126.402344 111.703125 127.398438 111.484375 C 127.539062 111.457031 127.65625 111.34375 127.789062 111.269531 C 127.628906 111.199219 127.453125 111.046875 127.316406 111.074219 C 125.773438 111.40625 124.230469 111.738281 122.699219 112.125 C 120.675781 112.636719 118.660156 113.179688 116.648438 113.734375 C 114.101562 114.433594 111.5625 115.15625 109.023438 115.878906 C 108.851562 115.929688 108.703125 116.058594 108.539062 116.148438 C 108.734375 116.210938 108.929688 116.269531 109.261719 116.332031 Z M 125.597656 110.164062 C 127.453125 109.679688 129.308594 109.203125 131.15625 108.695312 C 131.3125 108.652344 131.417969 108.425781 131.550781 108.28125 C 131.375 108.234375 131.1875 108.117188 131.03125 108.152344 C 130.003906 108.363281 128.976562 108.578125 127.964844 108.84375 C 124.402344 109.777344 120.84375 110.714844 117.292969 111.691406 C 116.683594 111.859375 116.121094 112.199219 115.542969 112.46875 C 115.460938 112.507812 115.410156 112.605469 115.34375 112.679688 C 115.429688 112.691406 115.523438 112.738281 115.59375 112.714844 C 115.902344 112.613281 116.199219 112.453125 116.515625 112.382812 C 117.390625 112.191406 118.28125 112.066406 119.148438 111.851562 C 121.257812 111.328125 123.363281 110.773438 125.597656 110.164062 Z M 113.390625 116.222656 C 113.253906 116.246094 113.113281 116.253906 112.984375 116.304688 C 112.789062 116.375 112.605469 116.472656 112.417969 116.5625 C 112.625 116.574219 112.847656 116.644531 113.039062 116.597656 C 114.351562 116.269531 115.65625 115.917969 116.960938 115.570312 C 117.039062 115.550781 117.097656 115.464844 117.167969 115.410156 C 117.09375 115.382812 117.007812 115.3125 116.945312 115.324219 C 115.800781 115.609375 114.660156 115.90625 113.390625 116.222656 Z M 113.390625 116.222656 " fill-opacity="1" fill-rule="nonzero"/><path fill="#e5e1d7" d="M 101.359375 100.8125 C 101.808594 102.371094 102.089844 103.933594 101.621094 105.550781 C 101.300781 106.640625 100.164062 107.363281 99.097656 107.109375 C 94.46875 106.027344 89.839844 104.945312 85.210938 103.867188 C 77.785156 102.136719 70.363281 100.410156 62.9375 98.679688 C 62.828125 98.652344 62.722656 98.597656 62.566406 98.515625 C 62.691406 98.128906 62.871094 97.777344 63.042969 97.363281 C 63.703125 95.921875 63.242188 94.523438 63.097656 93.132812 C 63.082031 92.964844 63.050781 92.796875 63.097656 92.546875 C 64.527344 92.703125 65.890625 92.933594 67.25 93.1875 C 69.945312 93.695312 72.644531 94.195312 75.332031 94.734375 C 77.039062 95.074219 78.734375 95.488281 80.4375 95.855469 C 81.757812 96.136719 83.085938 96.398438 84.414062 96.660156 C 84.519531 96.679688 84.632812 96.636719 84.746094 96.625 C 84.660156 96.511719 84.597656 96.328125 84.492188 96.296875 C 83.984375 96.152344 83.46875 96.007812 82.945312 95.949219 C 81.207031 95.753906 79.609375 94.914062 77.789062 94.984375 C 76.949219 95.015625 76.097656 94.421875 75.226562 94.242188 C 71.4375 93.457031 67.640625 92.726562 63.847656 91.964844 C 63.457031 91.886719 63.074219 91.746094 62.6875 91.636719 C 62.515625 91.269531 62.339844 90.90625 62.230469 90.480469 C 64.113281 90.875 65.929688 91.378906 67.765625 91.78125 C 72.550781 92.835938 77.335938 93.882812 82.136719 94.863281 C 86.964844 95.84375 91.804688 96.785156 96.652344 97.664062 C 98.722656 98.035156 100.714844 98.378906 101.359375 100.8125 Z M 93.40625 98.390625 C 93.1875 98.402344 92.953125 98.476562 92.753906 98.421875 C 90.585938 97.839844 88.425781 97.226562 86.253906 96.652344 C 86.042969 96.597656 85.78125 96.734375 85.542969 96.785156 C 85.734375 96.894531 85.914062 97.058594 86.121094 97.109375 C 88.28125 97.648438 90.445312 98.175781 92.609375 98.699219 C 93.574219 98.929688 94.539062 99.160156 95.507812 99.375 C 95.628906 99.402344 95.765625 99.347656 95.898438 99.332031 C 95.800781 99.257812 95.710938 99.152344 95.601562 99.117188 C 94.90625 98.890625 94.207031 98.675781 93.40625 98.390625 Z M 83.222656 97.335938 C 83.65625 97.445312 84.085938 97.570312 84.527344 97.648438 C 84.730469 97.683594 84.949219 97.621094 85.164062 97.601562 C 84.980469 97.460938 84.816406 97.234375 84.613281 97.183594 C 83.085938 96.824219 81.554688 96.496094 80.019531 96.171875 C 79.882812 96.144531 79.730469 96.226562 79.585938 96.257812 C 79.691406 96.382812 79.773438 96.582031 79.902344 96.613281 C 80.957031 96.867188 82.019531 97.085938 83.222656 97.335938 Z M 83.222656 97.335938 " fill-opacity="1" fill-rule="nonzero"/><path fill="#e5e1d7" d="M 102.199219 89.882812 C 101.980469 90.230469 101.835938 90.726562 101.519531 90.886719 C 100.890625 91.210938 100.136719 91.609375 99.496094 91.519531 C 97.808594 91.285156 96.164062 90.773438 94.492188 90.433594 C 86.308594 88.769531 78.125 87.101562 69.929688 85.488281 C 68.085938 85.125 66.199219 84.96875 64.335938 84.695312 C 63.75 84.609375 63.171875 84.449219 62.546875 84.277344 C 62.777344 83.988281 63.03125 83.710938 63.335938 83.515625 C 64.878906 82.535156 65.144531 80.945312 65.023438 79.375 C 64.902344 77.835938 64.398438 76.328125 64.136719 74.734375 C 64.351562 74.679688 64.5 74.664062 64.636719 74.699219 C 67.605469 75.476562 70.5625 76.289062 73.539062 77.03125 C 78.636719 78.300781 83.742188 79.527344 88.847656 80.769531 C 92.117188 81.570312 95.398438 82.328125 98.65625 83.175781 C 101.332031 83.875 102.636719 86.035156 102.1875 88.777344 C 102.125 89.132812 102.191406 89.511719 102.199219 89.882812 Z M 68.175781 80.734375 L 68.1875 80.695312 C 68.1875 80.695312 68.191406 80.722656 68.1875 80.832031 C 68.347656 80.960938 68.492188 81.171875 68.667969 81.207031 C 70.058594 81.464844 71.457031 81.691406 72.855469 81.917969 C 73.023438 81.945312 73.203125 81.882812 73.378906 81.863281 C 73.234375 81.71875 73.109375 81.464844 72.945312 81.4375 C 71.367188 81.179688 69.78125 80.960938 68.175781 80.734375 Z M 95.476562 83.867188 C 94.554688 83.625 93.632812 83.386719 92.710938 83.140625 C 91.390625 82.785156 90.070312 82.410156 88.746094 82.058594 C 87.453125 81.71875 86.160156 81.351562 84.84375 81.089844 C 84.453125 81.011719 84.128906 80.960938 83.730469 80.785156 C 82.75 80.34375 81.632812 80.199219 80.566406 79.945312 C 79.3125 79.648438 78.050781 79.371094 76.800781 79.058594 C 75.738281 78.792969 74.6875 78.480469 73.625 78.210938 C 73.507812 78.183594 73.355469 78.304688 73.21875 78.355469 C 73.296875 78.457031 73.355469 78.589844 73.457031 78.652344 C 73.597656 78.738281 73.777344 78.765625 73.933594 78.828125 C 75.367188 79.375 76.9375 79.347656 78.363281 79.960938 C 78.894531 80.191406 79.511719 80.21875 80.074219 80.386719 C 81.984375 80.949219 83.886719 81.550781 85.796875 82.113281 C 89.167969 83.101562 92.546875 84.070312 95.917969 85.054688 C 96.375 85.1875 96.804688 85.425781 97.269531 85.5 C 97.464844 85.527344 97.710938 85.265625 97.933594 85.132812 C 97.792969 84.949219 97.691406 84.683594 97.507812 84.601562 C 96.894531 84.332031 96.246094 84.132812 95.476562 83.867188 Z M 89.59375 84.644531 C 90.585938 84.949219 91.59375 85.214844 92.570312 85.566406 C 93.40625 85.871094 94.308594 85.757812 95.132812 86.355469 C 95.882812 86.894531 96.964844 86.992188 97.914062 87.230469 C 98.140625 87.289062 98.421875 87.136719 98.679688 87.082031 C 98.523438 86.882812 98.40625 86.597656 98.207031 86.503906 C 97.058594 85.988281 95.8125 85.792969 94.628906 85.335938 C 92.652344 84.574219 90.570312 84.074219 88.519531 83.519531 C 85.277344 82.636719 82.027344 81.789062 78.773438 80.957031 C 77.789062 80.703125 76.785156 80.53125 75.78125 80.347656 C 75.582031 80.3125 75.355469 80.414062 75.136719 80.449219 C 75.339844 80.585938 75.519531 80.777344 75.742188 80.839844 C 76.9375 81.164062 78.148438 81.433594 79.34375 81.769531 C 81.433594 82.359375 83.507812 83 85.597656 83.585938 C 86.890625 83.945312 88.195312 84.246094 89.59375 84.644531 Z M 86.367188 84.949219 C 86.605469 84.941406 86.84375 84.929688 87.082031 84.921875 C 86.859375 84.796875 86.644531 84.660156 86.414062 84.558594 C 86.265625 84.488281 86.09375 84.464844 85.929688 84.429688 C 85.011719 84.230469 84.09375 84.027344 83.171875 83.847656 C 83.082031 83.832031 82.964844 83.960938 82.863281 84.019531 C 82.9375 84.082031 83.007812 84.183594 83.089844 84.203125 C 84.164062 84.425781 85.242188 84.632812 86.367188 84.949219 Z M 68.25 77.292969 C 69.175781 77.566406 70.101562 77.84375 71.027344 78.117188 C 71.15625 78.15625 71.300781 78.242188 71.410156 78.210938 C 71.554688 78.167969 71.671875 78.035156 71.796875 77.941406 C 71.6875 77.886719 71.582031 77.816406 71.46875 77.785156 C 70.609375 77.554688 69.753906 77.308594 68.886719 77.125 C 68.660156 77.074219 68.386719 77.21875 68.25 77.292969 Z M 70.613281 79.148438 C 70.3125 79.097656 70.015625 79.039062 69.71875 79.011719 C 69.640625 79.003906 69.558594 79.09375 69.480469 79.136719 C 69.539062 79.179688 69.59375 79.25 69.65625 79.261719 C 70.648438 79.457031 71.640625 79.644531 72.632812 79.828125 C 72.710938 79.84375 72.804688 79.78125 72.890625 79.753906 C 72.828125 79.699219 72.777344 79.613281 72.707031 79.597656 C 72.054688 79.449219 71.402344 79.316406 70.613281 79.148438 Z M 80.003906 83.484375 C 80.445312 83.574219 80.878906 83.703125 81.320312 83.742188 C 81.496094 83.761719 81.6875 83.589844 81.871094 83.503906 C 81.730469 83.449219 81.589844 83.390625 81.445312 83.347656 C 81.023438 83.226562 80.609375 83.066406 80.183594 83.007812 C 79.835938 82.960938 79.476562 83.042969 79.121094 83.066406 C 79.375 83.1875 79.628906 83.304688 80.003906 83.484375 Z M 80.003906 83.484375 " fill-opacity="1" fill-rule="nonzero"/><g clip-path="url(#5b1f68aed7)"><path fill="#303033" d="M 135.550781 105.507812 C 125.730469 107.871094 115.921875 110.238281 106.109375 112.597656 C 101.402344 113.726562 96.6875 114.820312 91.992188 115.996094 C 91.488281 116.121094 90.894531 116.582031 90.679688 117.046875 C 90.15625 118.195312 89.832031 119.4375 89.421875 120.636719 C 89.378906 120.761719 89.3125 120.878906 89.191406 121.011719 C 88.765625 119.011719 89.578125 117.328125 90.609375 115.699219 C 90.984375 115.105469 91.574219 115.277344 92.101562 115.164062 C 93.410156 114.878906 94.707031 114.523438 96.011719 114.203125 C 108.164062 111.222656 120.3125 108.238281 132.46875 105.269531 C 134.046875 104.882812 135.640625 104.574219 137.304688 104.246094 C 137.660156 104.6875 137.507812 104.960938 137.066406 105.105469 C 136.691406 105.230469 136.304688 105.324219 135.820312 105.445312 C 135.667969 105.453125 135.621094 105.46875 135.582031 105.507812 C 135.582031 105.507812 135.5625 105.503906 135.550781 105.507812 Z M 135.550781 105.507812 " fill-opacity="1" fill-rule="nonzero"/></g><path fill="#303033" d="M 101.429688 100.792969 C 100.710938 98.378906 98.722656 98.035156 96.65625 97.660156 C 91.808594 96.78125 86.96875 95.84375 82.140625 94.859375 C 77.339844 93.882812 72.554688 92.832031 67.769531 91.78125 C 65.933594 91.375 64.117188 90.871094 62.222656 90.417969 C 61.542969 89.976562 60.515625 89.9375 60.601562 88.757812 C 60.699219 88.679688 60.816406 88.628906 60.867188 88.667969 C 63.003906 90.21875 65.597656 90.457031 68.035156 91.015625 C 75.832031 92.804688 83.667969 94.425781 91.5 96.066406 C 93.789062 96.546875 96.09375 96.976562 98.414062 97.234375 C 100.289062 97.445312 101.070312 98.5625 101.480469 100.175781 C 101.527344 100.363281 101.492188 100.574219 101.429688 100.792969 Z M 101.429688 100.792969 " fill-opacity="1" fill-rule="nonzero"/><path fill="#303033" d="M 102.261719 89.875 C 102.191406 89.511719 102.125 89.132812 102.1875 88.773438 C 102.636719 86.03125 101.332031 83.871094 98.65625 83.175781 C 95.398438 82.324219 92.117188 81.5625 88.847656 80.769531 C 83.742188 79.523438 78.636719 78.296875 73.539062 77.027344 C 70.5625 76.285156 67.605469 75.472656 64.636719 74.699219 C 64.5 74.664062 64.351562 74.675781 64.136719 74.664062 C 63.753906 74.261719 62.875 74.882812 62.839844 73.917969 C 63.539062 73.914062 64.265625 73.859375 64.921875 74.050781 C 72.933594 76.402344 81.039062 78.378906 89.1875 80.191406 C 92.492188 80.925781 95.773438 81.769531 99.054688 82.597656 C 101.953125 83.332031 103.816406 86.890625 102.519531 89.601562 C 102.476562 89.699219 102.386719 89.777344 102.261719 89.875 Z M 102.261719 89.875 " fill-opacity="1" fill-rule="nonzero"/><path fill="#303033" d="M 62.640625 91.667969 C 63.078125 91.746094 63.457031 91.886719 63.851562 91.964844 C 67.644531 92.726562 71.441406 93.457031 75.230469 94.242188 C 76.101562 94.421875 76.949219 95.015625 77.792969 94.984375 C 79.613281 94.914062 81.210938 95.753906 82.949219 95.949219 C 83.472656 96.007812 83.984375 96.152344 84.492188 96.296875 C 84.601562 96.328125 84.664062 96.511719 84.746094 96.625 C 84.636719 96.636719 84.519531 96.679688 84.417969 96.660156 C 83.089844 96.398438 81.761719 96.136719 80.441406 95.855469 C 78.738281 95.488281 77.042969 95.074219 75.335938 94.734375 C 72.648438 94.195312 69.949219 93.695312 67.253906 93.1875 C 65.894531 92.933594 64.53125 92.703125 63.097656 92.472656 C 62.542969 92.414062 62.445312 92.128906 62.640625 91.667969 Z M 62.640625 91.667969 " fill-opacity="1" fill-rule="nonzero"/><path fill="#303033" d="M 125.074219 72.832031 C 124.9375 73.101562 124.824219 73.488281 124.59375 73.574219 C 120.257812 75.226562 115.902344 76.847656 111.546875 78.453125 C 111.222656 78.570312 110.84375 78.535156 110.488281 78.570312 C 110.753906 78.359375 110.992188 78.074219 111.296875 77.953125 C 114.59375 76.613281 117.894531 75.285156 121.207031 73.984375 C 122.339844 73.535156 123.507812 73.164062 124.730469 72.75 C 124.882812 72.761719 124.960938 72.785156 125.074219 72.832031 Z M 125.074219 72.832031 " fill-opacity="1" fill-rule="nonzero"/><path fill="#e5e1d7" d="M 135.617188 105.535156 C 135.621094 105.46875 135.667969 105.453125 135.757812 105.46875 C 135.746094 105.507812 135.699219 105.535156 135.617188 105.535156 Z M 135.617188 105.535156 " fill-opacity="1" fill-rule="nonzero"/><path fill="#303033" d="M 63.457031 100.402344 C 63.664062 100.460938 63.808594 100.527344 64.011719 100.609375 C 67.351562 103.074219 70.75 105.351562 74.433594 107.171875 C 74.96875 107.433594 75.472656 107.769531 75.96875 108.105469 C 76.105469 108.199219 76.160156 108.429688 76.25 108.59375 C 76.046875 108.589844 75.804688 108.652344 75.644531 108.566406 C 74.226562 107.8125 72.792969 107.089844 71.429688 106.246094 C 68.824219 104.628906 66.265625 102.945312 63.699219 101.269531 C 63.429688 101.097656 62.847656 100.921875 63.457031 100.402344 Z M 63.457031 100.402344 " fill-opacity="1" fill-rule="nonzero"/><path fill="#303033" d="M 87.441406 113.800781 C 85.800781 113.117188 84.210938 112.476562 82.632812 111.804688 C 82.402344 111.703125 82.242188 111.449219 82.050781 111.265625 C 82.304688 111.269531 82.589844 111.203125 82.816406 111.292969 C 84.707031 112.023438 86.59375 112.773438 88.464844 113.550781 C 88.738281 113.664062 88.933594 113.964844 89.164062 114.175781 C 88.839844 114.175781 88.507812 114.21875 88.195312 114.160156 C 87.953125 114.117188 87.730469 113.949219 87.441406 113.800781 Z M 87.441406 113.800781 " fill-opacity="1" fill-rule="nonzero"/><path fill="#303033" d="M 123.398438 84.546875 C 119.234375 86.824219 115.136719 89.089844 111.015625 91.324219 C 110.667969 91.515625 110.203125 91.496094 109.792969 91.574219 C 110.089844 91.316406 110.355469 91 110.691406 90.816406 C 115.265625 88.289062 119.847656 85.773438 124.441406 83.277344 C 124.800781 83.082031 125.246094 83.046875 125.652344 82.9375 C 125.339844 83.222656 125.054688 83.539062 124.710938 83.78125 C 124.316406 84.0625 123.878906 84.277344 123.398438 84.546875 Z M 123.398438 84.546875 " fill-opacity="1" fill-rule="nonzero"/><path fill="#303033" d="M 109.191406 116.332031 C 108.929688 116.269531 108.734375 116.210938 108.539062 116.148438 C 108.703125 116.058594 108.851562 115.925781 109.023438 115.878906 C 111.5625 115.15625 114.101562 114.433594 116.648438 113.734375 C 118.660156 113.179688 120.675781 112.636719 122.699219 112.125 C 124.230469 111.738281 125.773438 111.40625 127.316406 111.074219 C 127.453125 111.046875 127.628906 111.199219 127.789062 111.269531 C 127.65625 111.34375 127.539062 111.457031 127.398438 111.484375 C 126.402344 111.703125 125.390625 111.871094 124.40625 112.125 C 123.441406 112.378906 122.507812 112.765625 121.542969 113.019531 C 119.816406 113.472656 118.0625 113.828125 116.335938 114.296875 C 113.96875 114.941406 111.621094 115.648438 109.191406 116.332031 Z M 109.191406 116.332031 " fill-opacity="1" fill-rule="nonzero"/><path fill="#303033" d="M 125.535156 110.195312 C 123.363281 110.769531 121.261719 111.328125 119.148438 111.851562 C 118.28125 112.066406 117.390625 112.1875 116.515625 112.382812 C 116.199219 112.449219 115.902344 112.609375 115.59375 112.710938 C 115.523438 112.734375 115.429688 112.691406 115.34375 112.675781 C 115.410156 112.605469 115.460938 112.507812 115.542969 112.46875 C 116.121094 112.199219 116.679688 111.855469 117.292969 111.6875 C 120.84375 110.714844 124.402344 109.773438 127.964844 108.839844 C 128.976562 108.574219 130.003906 108.359375 131.03125 108.148438 C 131.1875 108.117188 131.375 108.234375 131.550781 108.28125 C 131.417969 108.421875 131.3125 108.652344 131.15625 108.695312 C 129.308594 109.203125 127.449219 109.679688 125.535156 110.195312 Z M 125.535156 110.195312 " fill-opacity="1" fill-rule="nonzero"/><path fill="#303033" d="M 113.457031 116.207031 C 114.660156 115.90625 115.804688 115.609375 116.945312 115.324219 C 117.007812 115.308594 117.09375 115.378906 117.167969 115.410156 C 117.101562 115.464844 117.039062 115.546875 116.960938 115.566406 C 115.65625 115.917969 114.351562 116.269531 113.039062 116.59375 C 112.847656 116.644531 112.625 116.574219 112.417969 116.558594 C 112.605469 116.472656 112.789062 116.371094 112.984375 116.300781 C 113.113281 116.253906 113.253906 116.246094 113.457031 116.207031 Z M 113.457031 116.207031 " fill-opacity="1" fill-rule="nonzero"/><path fill="#303033" d="M 93.457031 98.421875 C 94.207031 98.675781 94.90625 98.886719 95.601562 99.117188 C 95.710938 99.152344 95.800781 99.257812 95.898438 99.332031 C 95.765625 99.347656 95.628906 99.402344 95.507812 99.375 C 94.539062 99.160156 93.570312 98.929688 92.609375 98.699219 C 90.445312 98.175781 88.28125 97.648438 86.121094 97.109375 C 85.914062 97.058594 85.734375 96.894531 85.542969 96.785156 C 85.78125 96.734375 86.042969 96.597656 86.253906 96.652344 C 88.425781 97.226562 90.585938 97.839844 92.753906 98.421875 C 92.953125 98.476562 93.1875 98.402344 93.457031 98.421875 Z M 93.457031 98.421875 " fill-opacity="1" fill-rule="nonzero"/><path fill="#303033" d="M 83.152344 97.324219 C 82.019531 97.085938 80.957031 96.863281 79.902344 96.613281 C 79.773438 96.582031 79.6875 96.378906 79.585938 96.257812 C 79.730469 96.226562 79.882812 96.144531 80.019531 96.171875 C 81.554688 96.496094 83.085938 96.824219 84.613281 97.183594 C 84.816406 97.230469 84.980469 97.457031 85.164062 97.601562 C 84.949219 97.617188 84.730469 97.683594 84.527344 97.644531 C 84.085938 97.570312 83.65625 97.445312 83.152344 97.324219 Z M 83.152344 97.324219 " fill-opacity="1" fill-rule="nonzero"/><path fill="#303033" d="M 95.542969 83.886719 C 96.246094 84.132812 96.894531 84.332031 97.511719 84.601562 C 97.691406 84.679688 97.792969 84.949219 97.933594 85.132812 C 97.710938 85.261719 97.464844 85.527344 97.269531 85.496094 C 96.808594 85.425781 96.375 85.1875 95.917969 85.054688 C 92.546875 84.070312 89.171875 83.101562 85.800781 82.109375 C 83.886719 81.546875 81.988281 80.949219 80.074219 80.382812 C 79.511719 80.21875 78.898438 80.191406 78.363281 79.960938 C 76.941406 79.347656 75.367188 79.375 73.9375 78.824219 C 73.777344 78.761719 73.601562 78.734375 73.457031 78.648438 C 73.355469 78.589844 73.296875 78.453125 73.222656 78.351562 C 73.355469 78.300781 73.511719 78.179688 73.625 78.210938 C 74.6875 78.480469 75.738281 78.789062 76.804688 79.054688 C 78.054688 79.367188 79.316406 79.644531 80.570312 79.945312 C 81.632812 80.199219 82.75 80.339844 83.734375 80.785156 C 84.128906 80.960938 84.453125 81.007812 84.847656 81.089844 C 86.160156 81.351562 87.453125 81.714844 88.75 82.058594 C 90.074219 82.40625 91.390625 82.78125 92.710938 83.136719 C 93.632812 83.386719 94.554688 83.625 95.542969 83.886719 Z M 95.542969 83.886719 " fill-opacity="1" fill-rule="nonzero"/><path fill="#303033" d="M 89.542969 84.609375 C 88.195312 84.246094 86.890625 83.945312 85.601562 83.585938 C 83.507812 83 81.433594 82.359375 79.34375 81.769531 C 78.152344 81.433594 76.9375 81.164062 75.742188 80.839844 C 75.523438 80.777344 75.339844 80.582031 75.140625 80.449219 C 75.355469 80.414062 75.582031 80.3125 75.785156 80.347656 C 76.785156 80.53125 77.789062 80.703125 78.773438 80.957031 C 82.027344 81.789062 85.277344 82.636719 88.519531 83.519531 C 90.574219 84.074219 92.652344 84.574219 94.632812 85.335938 C 95.8125 85.792969 97.0625 85.984375 98.207031 86.503906 C 98.410156 86.597656 98.523438 86.882812 98.679688 87.082031 C 98.421875 87.136719 98.140625 87.289062 97.914062 87.230469 C 96.96875 86.992188 95.886719 86.894531 95.136719 86.355469 C 94.308594 85.757812 93.40625 85.871094 92.570312 85.566406 C 91.59375 85.210938 90.585938 84.949219 89.542969 84.609375 Z M 89.542969 84.609375 " fill-opacity="1" fill-rule="nonzero"/><path fill="#303033" d="M 68.199219 80.726562 C 69.78125 80.957031 71.367188 81.179688 72.945312 81.4375 C 73.109375 81.464844 73.234375 81.71875 73.378906 81.863281 C 73.207031 81.882812 73.027344 81.941406 72.859375 81.917969 C 71.460938 81.691406 70.0625 81.464844 68.667969 81.207031 C 68.492188 81.171875 68.347656 80.960938 68.191406 80.777344 C 68.195312 80.726562 68.199219 80.726562 68.199219 80.726562 Z M 68.199219 80.726562 " fill-opacity="1" fill-rule="nonzero"/><path fill="#303033" d="M 86.339844 84.894531 C 85.242188 84.632812 84.164062 84.425781 83.089844 84.203125 C 83.007812 84.1875 82.9375 84.082031 82.863281 84.019531 C 82.964844 83.960938 83.082031 83.832031 83.171875 83.851562 C 84.09375 84.027344 85.011719 84.230469 85.929688 84.429688 C 86.089844 84.464844 86.265625 84.492188 86.414062 84.558594 C 86.644531 84.664062 86.859375 84.800781 87.082031 84.921875 C 86.84375 84.929688 86.605469 84.941406 86.339844 84.894531 Z M 86.339844 84.894531 " fill-opacity="1" fill-rule="nonzero"/><path fill="#303033" d="M 68.191406 77.28125 C 68.386719 77.21875 68.660156 77.074219 68.890625 77.125 C 69.757812 77.308594 70.613281 77.554688 71.46875 77.785156 C 71.585938 77.816406 71.691406 77.886719 71.800781 77.9375 C 71.671875 78.03125 71.554688 78.167969 71.410156 78.207031 C 71.300781 78.238281 71.15625 78.15625 71.03125 78.117188 C 70.101562 77.84375 69.175781 77.566406 68.191406 77.28125 Z M 68.191406 77.28125 " fill-opacity="1" fill-rule="nonzero"/><path fill="#303033" d="M 70.679688 79.164062 C 71.402344 79.316406 72.054688 79.449219 72.703125 79.597656 C 72.773438 79.613281 72.828125 79.703125 72.886719 79.757812 C 72.800781 79.78125 72.710938 79.84375 72.628906 79.828125 C 71.636719 79.648438 70.644531 79.457031 69.65625 79.261719 C 69.589844 79.25 69.535156 79.183594 69.476562 79.140625 C 69.558594 79.09375 69.640625 79.007812 69.714844 79.011719 C 70.015625 79.039062 70.3125 79.101562 70.679688 79.164062 Z M 70.679688 79.164062 " fill-opacity="1" fill-rule="nonzero"/><path fill="#303033" d="M 79.941406 83.453125 C 79.625 83.304688 79.375 83.1875 79.121094 83.066406 C 79.476562 83.042969 79.835938 82.960938 80.183594 83.007812 C 80.609375 83.066406 81.023438 83.230469 81.445312 83.351562 C 81.589844 83.394531 81.730469 83.453125 81.871094 83.503906 C 81.6875 83.589844 81.496094 83.761719 81.320312 83.746094 C 80.878906 83.703125 80.445312 83.578125 79.941406 83.453125 Z M 79.941406 83.453125 " fill-opacity="1" fill-rule="nonzero"/><path fill="#303033" d="M 68.191406 80.722656 C 68.191406 80.722656 68.1875 80.695312 68.1875 80.695312 C 68.1875 80.695312 68.175781 80.734375 68.1875 80.730469 C 68.199219 80.726562 68.195312 80.726562 68.191406 80.722656 Z M 68.191406 80.722656 " fill-opacity="1" fill-rule="nonzero"/></svg>